<?xml version="1.0" standalone="no"?>
<!DOCTYPE svg PUBLIC "-//W3C//DTD SVG 1.1//EN" "http://www.w3.org/Graphics/SVG/1.1/DTD/svg11.dtd">
<svg xmlns="http://www.w3.org/2000/svg">
<defs >
<font id="Lora" horiz-adv-x="598" ><font-face
    font-family="Lora Medium"
    units-per-em="1000"
    panose-1="0 0 0 0 0 0 0 0 0 0"
    ascent="1006"
    descent="-274"
    alphabetic="0" />
<glyph unicode=" " horiz-adv-x="263" />
<glyph unicode="!" horiz-adv-x="263" d="M108 224L69 637Q67 665 82 690T132 716Q167 716 181 691T193 637L155 224H108ZM131 -16Q106 -16 87 4T68 53Q68 81 87 101T132 122Q159 122 176 102T194 53Q194 24 175 4T131 -16Z" />
<glyph unicode="&quot;" horiz-adv-x="339" d="M207 491L199 716H283L274 491H207ZM64 491L56 716H140L131 491H64Z" />
<glyph unicode="#" horiz-adv-x="844" d="M157 -16L200 170H34L52 240H216L269 459H100L118 529H285L329 716H406L363 529H563L607 716H684L642 529H809V528L792 459H626L576 240H743L725 170H561L518 -16H435L479 170H282L240 -16H157ZM297 240H494L547 459H348L297
240Z" />
<glyph unicode="$" horiz-adv-x="549" d="M251 -153L250 -15Q217 -12 181 0T116 29L120 -12H58V207H103Q111 118 159 76T284 34Q341 34 375 67T410 151Q410 192 387 219T326 268T247 309Q197 333 152 362T79 433T50 536Q50 562 59 592T91 650T150 696T243 716V834H310L309
713Q336 709 361 700T410 672L406 714H466V491H419Q414 541 398 581T348 644T260 667Q223 667 198 652T160 613T147 559Q147 524 166 498T218 451T297 407Q335 388 372 367T441 320T491 259T510 175Q510 127 489 86T424 18T316 -15V-153H251Z" />
<glyph unicode="%" horiz-adv-x="881" d="M174 -17L125 27L691 716L745 667L174 -17ZM221 332Q162 332 121 359T59 429T38 520Q38 567 59 611T121 685T221 716Q283 718 324 691T385 620T406 530Q406 478 381 433T315 360T221 332ZM224 385Q257 385 275 405T300
456T308 514Q308 538 304 564T291 613T264 652T222 667Q197 667 181 654T154 619T140 576T136 537Q136 514 140 488T153 439T180 400T224 385ZM662 -16Q600 -17 559 10T496 81T475 171Q475 222 499 266T565 339T661 368Q721 369 762 342T824 271T845 180Q845 132
823 87T760 14T662 -16ZM663 35Q687 35 703 48T729 81T743 123T747 165Q747 187 743 213T730 263T703 301T659 317Q627 317 608 296T582 244T574 187Q574 164 578 138T593 88T620 50T663 35Z" />
<glyph unicode="&amp;" horiz-adv-x="687" d="M268 -16Q224 -16 182 -6T106 28T52 88T32 177Q32 242 75 292T188 372Q159 408 142 438T118 498T110 556Q111 630 163 673T297 716Q349 716 387 697T446 644T467 570Q467 532 450 497T397 432T309 373Q329 353 358
322T422 258T487 195Q491 211 493 226T495 254Q495 279 489 299T468 332T427 346V390H599V337L526 341Q538 328 543 309T550 265Q551 243 546 215T530 156Q539 148 548 140T569 122Q612 84 644 64T694 44V0H596Q587 0 557 17T481 74Q446 36 394 10T268 -16ZM286
41Q341 40 379 59T442 108Q433 116 425 124T406 141Q342 203 296 249T215 334Q188 316 173 291T151 240T144 195Q144 143 163 110T215 59T286 41ZM280 406Q330 441 354 485T378 570Q378 614 356 642T292 671Q256 671 231 643T206 563Q206 525 227 484T280 406Z"
/>
<glyph unicode="&apos;" horiz-adv-x="201" d="M65 491L55 716H146L137 491H65Z" />
<glyph unicode="(" horiz-adv-x="302" d="M258 760L287 733Q256 692 233 644T192 545T165 441T150 337T144 239Q144 193 149 143T165 42T192 -59T232 -156T287 -244L259 -271Q222 -237 182 -185T108 -65T53 79T32 239Q32 322 53 401T108 549T181 672T258 760Z" />
<glyph unicode=")" horiz-adv-x="302" d="M44 -271L15 -244Q46 -203 70 -155T110 -56T137 48T153 152T158 250Q158 296 153 346T138 447T111 548T70 645T15 733L44 760Q81 726 121 674T195 554T250 410T271 250Q271 167 250 88T195 -60T121 -183T44 -271Z" />
<glyph unicode="*" horiz-adv-x="524" d="M127 300Q112 312 111 327T117 357T135 386Q155 408 179 432T233 477Q197 478 162 483T99 495Q83 499 68 506T45 526T43 558Q53 586 78 586T126 575Q153 563 184 548T244 511Q233 545 228 580T220 644Q218 661 221 677T233
705T262 716Q282 716 291 705T302 678T304 644Q301 615 296 580T279 511Q309 532 339 547T397 575Q412 582 429 584T460 582T480 558Q489 530 469 516T425 495Q396 489 362 484T291 477Q319 455 344 432T388 386Q399 374 407 358T414 327T397 300Q382 289 368 292T342
308T321 333Q306 358 290 390T262 456Q250 423 234 391T203 333Q195 320 183 308T157 293T127 300Z" />
<glyph unicode="+" horiz-adv-x="530" d="M42 393H488V334H42V393ZM295 583V137H235V583H295Z" />
<glyph unicode="," horiz-adv-x="252" d="M117 -182L86 -159Q97 -145 109 -119T130 -62T136 0Q129 -3 124 -4T112 -5Q91 -5 75 9T59 49Q59 78 76 95T119 113Q158 113 177 86T197 17Q197 -10 188 -46T160 -117T117 -182Z" />
<glyph unicode="-" horiz-adv-x="483" d="M62 277V359H421V280L62 277Z" />
<glyph unicode="." horiz-adv-x="242" d="M121 -16Q94 -16 76 4T57 53Q57 81 76 101T121 122Q148 122 166 102T184 53Q184 24 166 4T121 -16Z" />
<glyph unicode="/" horiz-adv-x="693" d="M87 -271L22 -230L598 758L671 712L87 -271Z" />
<glyph unicode="0" horiz-adv-x="626" d="M313 -16Q237 -16 186 16T106 102T65 220T52 347Q52 410 67 475T115 594T197 682T317 716Q390 716 439 683T519 597T562 479T575 352Q575 290 560 225T514 106T433 18T313 -16ZM319 34Q360 34 386 59T427 127T449 223T455
331Q455 392 449 451T428 560T385 638T315 667Q275 667 247 642T203 574T179 478T171 368Q171 326 174 280T187 190T213 111T256 55T319 34Z" />
<glyph unicode="1" horiz-adv-x="378" d="M76 0V44Q107 46 124 57T150 90T158 149L156 597L39 524L14 564L220 716H263L264 127Q264 106 264 86T261 51Q280 53 302 53T342 55V0H76Z" />
<glyph unicode="2" horiz-adv-x="536" d="M44 0Q44 53 59 94T101 169T160 234T227 298Q295 362 324 415T354 520Q354 556 344 589T309 645T240 666Q203 666 175 649T135 605Q146 595 150 582T154 558Q154 549 149 537T131 515T99 506Q74 507 61 524T47 567Q47
588 60 614T100 663T166 701T259 716Q299 716 337 707T406 676T455 619T473 532Q473 507 463 479T430 417T367 345T269 258Q206 206 168 161T124 85L307 80Q348 79 378 81T426 97T444 148H485L478 0H44Z" />
<glyph unicode="3" horiz-adv-x="558" d="M254 -16Q181 -16 134 6T64 60T41 124Q41 149 55 167T94 186Q115 187 126 178T142 157T147 134Q147 124 144 114T135 92Q145 63 177 50T246 36Q314 36 353 75T392 182Q392 222 379 260T329 322T225 344Q217 344 205 344T183
342V396Q193 396 202 396T220 396Q270 396 300 417T345 469T359 532Q360 571 350 601T315 649T249 667Q210 667 182 647T145 605Q154 594 157 583T161 561Q161 552 156 540T139 519T107 511Q83 511 71 528T58 569Q58 598 80 632T148 691T264 716Q320 716 367 699T443
644T472 541Q472 512 457 480T408 421T313 377Q408 365 459 314T511 189Q511 121 476 76T383 7T254 -16Z" />
<glyph unicode="4" horiz-adv-x="544" d="M410 127Q410 105 410 85T406 50Q425 51 445 51T482 53V0H220V44H227Q257 46 274 58T298 95T305 157V189H12V253L368 716H410V259L510 258V189H410V127ZM303 551L87 263L305 261V551H303Z" />
<glyph unicode="5" horiz-adv-x="543" d="M253 -16Q188 -16 143 5T74 58T49 120Q49 145 63 163T102 182Q123 183 134 175T150 154T155 131Q155 122 153 112T144 91Q149 72 167 59T209 39T253 34Q299 35 327 58T368 118T382 194Q382 220 378 252T360 314T317 363T239
383Q223 383 200 379T154 367T111 347L78 375L75 700H334Q384 700 405 714T426 765H465L459 623L131 616V410Q155 420 192 428T268 437Q330 437 374 418T447 367T489 295T503 213Q503 138 468 87T375 10T253 -16Z" />
<glyph unicode="6" horiz-adv-x="577" d="M292 -16Q203 -16 151 26T76 145T53 327Q53 362 59 412T83 514T130 613T209 687T325 716Q386 716 425 695T484 644T504 587Q504 564 492 547T454 528Q425 528 414 545T402 577Q402 587 405 598T415 620Q409 636 386 652T326
668Q286 667 258 646T212 590T184 514T170 434T164 365Q179 384 201 401T254 429T318 440Q377 441 417 422T483 370T519 297T530 214Q530 151 499 99T415 15T292 -16ZM295 33Q338 33 364 55T401 114T412 191Q412 217 408 250T392 313T357 363T295 383Q267 383 241
370T194 335T164 288Q166 244 173 200T196 118T235 57T295 33Z" />
<glyph unicode="7" horiz-adv-x="464" d="M197 -16Q174 -15 165 -1T155 33Q155 54 165 87T192 160T222 233Q240 278 264 340T320 474T385 620H139Q101 620 79 603T57 545H20L22 700H443V624Q408 551 382 484T336 350T297 210T257 50Q251 25 237 4T197 -16Z" />
<glyph unicode="8" horiz-adv-x="565" d="M278 -16Q243 -16 205 -8T133 20T79 72T58 153Q58 195 79 232T133 299T203 351Q131 396 101 443T71 532Q71 579 90 614T141 671T211 705T288 716Q339 716 384 697T458 642T487 552Q487 515 469 483T421 425T357 381Q404
353 440 320T497 248T518 168Q518 104 485 64T396 4T278 -16ZM280 34Q339 33 372 64T405 148Q405 196 372 242T252 327Q202 290 180 246T155 168Q151 110 186 73T280 34ZM312 408Q352 436 375 472T399 543Q401 603 371 634T292 667Q256 667 231 652T193 611T180
556Q180 506 218 467T312 408Z" />
<glyph unicode="9" horiz-adv-x="577" d="M256 -16Q191 -16 151 3T92 52T74 110Q74 133 87 151T125 170Q154 170 165 153T177 120Q177 111 174 100T163 78Q170 60 191 47T253 33Q294 34 322 53T367 105T395 177T408 258T411 334Q389 305 349 283T257 259Q199 259
159 278T94 330T58 403T46 486Q46 551 75 603T158 686T284 716Q354 716 399 690T472 616T510 504T522 365Q522 321 517 270T495 168T450 77T373 10T256 -16ZM281 316Q309 316 335 329T381 364T411 411Q409 459 402 504T380 586T341 645T279 667Q240 667 214 645T176
586T163 508Q163 482 167 449T183 386T218 336T281 316Z" />
<glyph unicode=":" horiz-adv-x="250" d="M125 -16Q98 -16 80 4T61 53Q61 81 80 101T125 122Q152 122 170 102T188 53Q188 24 170 4T125 -16ZM125 387Q98 387 80 407T61 456Q61 484 80 504T125 525Q152 525 170 505T188 456Q188 427 170 407T125 387Z" />
<glyph unicode=";" horiz-adv-x="264" d="M122 -182L91 -159Q102 -145 114 -119T135 -62T141 0Q134 -3 129 -4T117 -5Q96 -5 80 9T64 49Q64 78 81 95T124 113Q163 113 182 86T202 17Q202 -10 193 -46T165 -117T122 -182ZM132 387Q105 387 87 407T68 456Q68 484
87 504T132 525Q159 525 177 505T195 456Q195 427 177 407T132 387Z" />
<glyph unicode="&lt;" horiz-adv-x="530" d="M483 81L36 275V350L483 548V474L124 316L483 157V81Z" />
<glyph unicode="=" horiz-adv-x="530" d="M42 474H488V415H42V474ZM42 315H488V256H42V315Z" />
<glyph unicode="&gt;" horiz-adv-x="530" d="M41 548L488 354V279L41 81V155L400 313L41 472V548Z" />
<glyph unicode="?" horiz-adv-x="484" d="M230 186Q200 186 174 201T147 253Q147 274 158 291T189 329T236 373Q273 406 302 445T332 542Q333 577 323 605T289 650T222 667Q198 667 177 658T142 636T123 609Q130 600 133 589T137 566Q137 557 132 545T115 524T84
515Q59 517 47 533T34 574Q34 605 59 638T130 693T238 716Q317 716 362 691T426 627T444 547Q442 506 420 472T365 410T301 358T247 313T225 271Q225 259 234 249T267 239Q274 239 283 240T301 245L314 205Q295 195 272 191T230 186ZM237 -16Q214 -16 196 2T177
49Q177 76 195 95T237 115Q263 115 280 96T297 49Q297 22 280 3T237 -16Z" />
<glyph unicode="@" horiz-adv-x="795" d="M417 -96Q325 -98 256 -71T141 6T72 120T49 257Q49 320 71 385T137 506T248 597T405 636Q492 640 557 613T665 539T730 433T751 313Q751 240 729 191T674 114T606 75T544 68Q515 72 498 85T474 120T466 169T470 229Q440
146 403 109T324 72Q283 72 251 105T218 213Q218 266 233 314T278 401T351 461T452 483Q474 483 505 480T563 467Q559 433 555 396T546 324T538 257T533 202Q531 180 533 159T544 124T569 106Q593 104 613 117T647 156T670 216T680 289Q682 400 645 468T543 568T398
594Q335 591 285 563T200 489T146 385T127 263Q127 183 150 125T215 27T310 -31T420 -51Q457 -52 499 -44T583 -15T659 46L682 20Q632 -37 564 -65T417 -96ZM345 120Q369 120 393 151T436 230T468 334T481 439Q471 443 457 445T428 446Q396 446 372 425T331 370T306
296T298 218Q298 173 310 147T345 120Z" />
<glyph unicode="A" horiz-adv-x="640" d="M-3 0V45Q27 45 43 61T70 104T94 166L296 719H336L555 158Q563 139 573 107T582 51Q599 53 615 53T647 55V0H404V44Q439 45 450 59T460 95T449 137L419 218L174 212L145 125Q139 105 132 87T118 52Q136 54 156 54T193
56V0H-3ZM192 266H402L339 435Q327 468 316 500T296 563H295Q287 538 277 508T254 443L192 266Z" />
<glyph unicode="B" horiz-adv-x="635" d="M53 0V44Q86 45 100 57T119 95T123 158V566Q123 593 124 614T126 649Q109 648 89 647T53 645V700Q113 701 173 701T296 702Q414 702 481 660T545 527Q544 496 527 466T474 412T387 377V375Q494 370 547 320T600 197Q600
135 569 91T484 23T361 0H53ZM226 50Q243 50 263 50T301 49T329 49Q401 50 442 88T483 194Q483 250 461 281T402 326T325 339Q297 339 275 339T229 337V132Q229 105 229 84T226 50ZM229 386L295 388Q347 389 377 410T421 464T433 533Q433 583 412 609T360 645T299
655Q271 655 256 647T235 620T229 562V386Z" />
<glyph unicode="C" horiz-adv-x="695" d="M594 477Q583 567 532 615T399 665Q347 665 303 642T227 578T178 480T160 356Q160 265 192 195T280 85T409 46Q473 46 535 76T639 163L672 135Q627 73 576 40T475 -4T383 -16Q308 -16 245 11T137 86T67 199T42 339Q42
409 64 476T129 597T237 684T390 716Q441 716 489 702T583 659L578 709H640V477H594Z" />
<glyph unicode="D" horiz-adv-x="750" d="M53 44Q86 46 100 58T119 94T123 155V571Q123 593 124 613T126 649Q109 648 89 647T53 645V700L308 701Q401 701 475 677T601 608T680 497T707 352Q707 285 684 222T614 110T494 30T324 0H53V44ZM229 133Q229 106 229
85T226 51Q247 51 268 51T305 50T329 50Q391 50 439 73T520 137T571 232T589 347Q589 445 557 513T461 617T300 654Q267 654 252 643T233 607T229 546V133Z" />
<glyph unicode="E" horiz-adv-x="623" d="M399 253Q399 296 387 315T349 338T287 341L229 339V131Q229 104 229 84T226 50L398 52Q437 53 468 66T517 113T535 203H579L573 0H53V44Q86 46 100 58T119 94T123 155V571Q123 593 124 613T126 649Q109 648 89 647T53
645V700H541L546 519H502Q502 576 484 606T436 646T372 655L302 653Q271 653 255 643T234 609T229 545V388H394L388 474H443V253H399Z" />
<glyph unicode="F" horiz-adv-x="556" d="M53 0V44Q86 46 100 58T119 94T123 155V571Q123 593 124 613T126 649Q109 648 89 647T53 645V700H529L535 519H491Q491 576 472 606T423 646T358 655L298 653Q266 653 252 640T233 603T229 542V370L380 369L374 456H429V234H385Q385
278 373 297T335 320T273 323L229 321V134Q229 107 229 86T226 51Q241 52 258 52T293 54T324 55V0H53Z" />
<glyph unicode="G" horiz-adv-x="759" d="M383 -16Q281 -16 204 28T85 151T43 337Q43 407 64 474T129 596T238 683T391 716Q424 716 460 710T530 692T593 663L589 709H651V479H605Q600 539 572 580T499 643T400 665Q347 665 304 642T228 577T179 479T161 359Q161
267 191 196T278 83T409 42Q433 42 461 46T518 60T570 85V197Q570 222 570 246T571 292Q555 291 535 290T500 288V343H739V299Q715 299 701 288T680 261T671 226T669 191V35H643Q622 35 594 29T531 9Q500 -2 460 -9T383 -16Z" />
<glyph unicode="H" horiz-adv-x="789" d="M53 0V44Q86 46 100 58T119 94T123 155V571Q123 593 124 613T126 649Q109 648 89 647T53 645V700H299V656Q267 655 252 643T233 607T229 545V382H560V571Q560 593 561 613T563 649Q546 648 526 647T490 645V700H736V656Q704
655 689 643T670 607T666 545V134Q666 107 666 86T663 51Q680 53 700 53T736 55V0H490V44Q523 46 537 58T556 94T560 155V330L229 327V134Q229 107 229 86T226 51Q243 53 263 53T299 55V0H53Z" />
<glyph unicode="I" horiz-adv-x="352" d="M299 656Q267 655 252 643T233 607T229 545V134Q229 107 229 86T226 51Q243 53 263 53T299 55V0H53V44Q86 46 100 58T119 94T123 155V571Q123 593 124 613T126 649Q109 648 89 647T53 645V700H299V656Z" />
<glyph unicode="J" horiz-adv-x="399" d="M117 -16Q86 -16 59 -6T16 23T-1 67Q-1 91 12 109T51 129Q80 131 92 114T104 78Q104 73 103 66T98 51Q104 41 116 38T135 35Q162 36 175 59T189 138V559Q189 584 189 607T190 649Q168 648 143 647T97 645V700H370V656Q341
656 325 646T302 614T295 561V247Q295 105 252 45T117 -16Z" />
<glyph unicode="K" horiz-adv-x="693" d="M53 0V44Q86 46 100 58T119 94T123 155V571Q123 593 124 613T126 649Q109 648 89 647T53 645V700H299V656Q267 655 252 643T233 607T229 545V385H303L412 560Q427 583 446 609T482 650Q467 649 451 649T421 647V700H646V656Q610
654 580 644T520 609T459 532L362 377Q388 361 405 341T438 300L547 153Q579 110 602 86T647 53T689 44V0H556Q547 0 530 15T494 53T456 99L343 255Q326 278 309 300T274 332H229V134Q229 107 229 86T226 51Q243 53 263 53T299 55V0H53Z" />
<glyph unicode="L" horiz-adv-x="587" d="M53 0V44Q86 46 100 58T119 94T123 155V571Q123 593 124 613T126 649Q109 648 89 647T53 645V700H299V656Q267 655 252 643T233 607T229 545V131Q229 104 229 84T226 50L395 52Q457 53 490 92T523 218H568L562 0H53Z" />
<glyph unicode="M" horiz-adv-x="936" d="M424 -10Q383 84 342 178T261 367Q249 395 236 428T210 498T185 573Q185 547 185 523T185 477Q184 446 183 405T181 317T179 226T177 138Q177 114 176 91T173 51Q191 53 211 53T248 55V0H45V44Q73 45 88 55T108 85T115
134L129 566Q130 588 131 610T133 649Q115 648 95 648T60 646V700H235L400 306Q412 279 424 249T448 189T471 133H473Q484 163 498 199T522 263Q565 371 609 479T697 700H873V656Q849 656 833 648T809 617T803 554L825 123Q827 103 827 84T825 52Q843 53 863 53T899
55V0H657V44Q686 45 701 56T722 90T725 152L709 443Q708 458 707 478T705 521T702 565Q699 558 696 551T690 534L475 -10H424Z" />
<glyph unicode="N" horiz-adv-x="766" d="M595 -14L223 480Q212 493 202 507T181 536H180L183 147Q183 122 183 97T180 51Q197 53 217 53T253 55V0H55V44Q83 44 97 55T117 84T123 126V574Q123 594 123 614T124 649Q108 648 89 647T54 645V700H186L538 237Q555
215 568 196T595 160H596L597 571Q597 593 598 613T600 649Q582 648 562 647T527 645V700H725V656Q693 655 679 643T661 607T657 545L656 -14H595Z" />
<glyph unicode="O" horiz-adv-x="786" d="M396 -16Q301 -16 234 16T124 101T62 220T42 350Q42 413 63 477T128 596T237 683T391 716Q483 716 549 683T659 596T723 477T745 350Q745 288 724 224T659 105T550 17T396 -16ZM401 36Q459 36 501 62T571 131T612 227T625
332Q625 396 610 455T565 562T489 637T385 665Q327 665 284 638T214 568T174 472T160 366Q160 314 174 256T217 148T291 67T401 36Z" />
<glyph unicode="P" horiz-adv-x="617" d="M53 44Q86 46 100 58T119 94T123 155V571Q123 593 124 613T126 649Q109 648 89 647T53 645V700Q112 701 173 701T297 702Q391 702 456 680T557 612T594 497Q595 458 580 417T529 340T432 282T277 260Q267 259 255 259T229
260V134Q229 107 229 86T226 51Q240 52 256 53T287 54T316 56V0H53V44ZM229 313Q246 311 258 311T288 310Q344 310 387 331T454 392T478 487Q478 535 464 567T424 618T365 645T295 653Q265 653 251 641T233 606T229 547V313Z" />
<glyph unicode="Q" horiz-adv-x="787" d="M753 -218Q714 -218 687 -215T637 -201T583 -163Q539 -123 509 -90T451 -36T388 -16Q295 -15 230 17T123 103T62 221T43 350Q43 413 64 477T128 596T237 683T392 716Q483 716 550 683T660 596T724 477T745 350Q745 297
729 242T682 138T604 51T492 -3Q518 -3 540 -7T584 -24T635 -64Q670 -96 693 -117T731 -151T760 -168T789 -174V-218H753ZM401 36Q459 36 501 62T571 131T612 227T626 332Q626 396 611 455T565 562T489 637T385 665Q327 665 284 638T214 568T174 472T160 366Q160
314 174 256T217 148T291 67T401 36Z" />
<glyph unicode="R" horiz-adv-x="647" d="M53 0V44Q86 46 100 58T119 94T123 155V571Q123 593 124 613T126 649Q109 648 89 647T53 645V700Q114 701 176 701T301 701Q395 701 456 680T547 616T577 510Q578 470 561 431T504 360T394 313Q414 301 430 280T463 233L524
139Q543 109 559 88T595 56T643 44V0H504Q478 22 460 47T420 105L351 217Q338 237 324 260T292 299Q276 299 261 299T229 299V134Q229 107 229 86T226 51Q238 52 251 52T278 54T302 55V0H53ZM287 348Q342 349 381 365T441 416T462 506Q462 547 450 575T416 620T364
645T298 653Q266 653 252 641T233 606T229 547V351Q244 350 257 349T287 348Z" />
<glyph unicode="S" horiz-adv-x="577" d="M450 484Q445 535 424 576T366 641T274 665Q218 665 185 634T152 559Q152 520 174 494T233 446T318 404Q356 388 395 368T466 323T517 262T536 178Q536 122 507 78T425 9T295 -16Q252 -16 205 -3T118 34L123 -8H62L58
212H106Q114 125 168 81T299 36Q337 36 368 50T417 90T435 151Q435 192 411 220T349 268T270 306Q229 324 191 344T121 390T72 451T54 535Q54 563 64 594T98 653T163 698T268 716Q306 716 353 705T440 666L436 708H496V484H450Z" />
<glyph unicode="T" horiz-adv-x="643" d="M575 484Q574 541 562 579T523 636T447 654H375L374 134Q374 107 374 86T371 51Q390 53 412 53T453 55V0H199V44Q232 46 246 58T264 94T268 155V653L184 652Q123 652 95 611T67 484H20L26 700H616L622 484H575Z" />
<glyph unicode="U" horiz-adv-x="755" d="M274 656Q245 656 230 645T210 616T205 574V315Q205 256 214 208T245 124T304 68T396 47Q463 47 506 77T570 163T593 296L595 571Q595 593 596 613T598 649Q581 648 561 647T525 645V700H727V656Q694 655 680 643T661
607T656 545L655 307Q655 235 639 176T589 73T504 7T382 -16Q301 -16 246 6T159 71T112 178T98 325V541Q98 568 99 600T102 649Q85 648 65 648T29 646V700H274V656Z" />
<glyph unicode="V" horiz-adv-x="671" d="M321 -9L93 525Q75 567 66 597T55 647Q41 646 27 646T0 645V700H253L252 655Q207 654 194 630T200 558Q223 500 245 444T294 327Q315 276 334 231T367 151H368Q379 184 391 217T418 292Q442 360 460 410T492 499T517 569Q525
592 533 613T550 649Q532 648 511 647T473 645V700H683V656Q643 654 619 632T575 555Q568 537 561 517T543 469T518 402T484 307T435 173T367 -9H321Z" />
<glyph unicode="W" horiz-adv-x="1002" d="M280 -9L102 526Q87 571 79 599T67 647Q51 646 37 646T9 645V700H269V656Q218 654 205 634T206 558Q223 495 241 441T277 327Q289 286 301 251T327 168H328Q333 184 339 206T353 251T366 294T375 324Q399 400 422 473T465
605T494 701H546Q556 664 572 615T606 513T639 412T666 327Q679 286 692 245T717 159H719Q728 189 738 222T759 291Q779 349 792 391T815 464T831 520T847 569Q853 588 861 609T881 648Q862 647 841 647T802 645V700H1012V656Q982 653 963 642T928 604T894 522Q850
387 808 255T720 -9H670L530 400Q519 430 511 459T494 517Q487 489 479 462T462 406L329 -9H280Z" />
<glyph unicode="X" horiz-adv-x="666" d="M20 0V44Q61 53 89 82T152 160L278 335Q218 417 179 470T111 561Q93 588 83 607T64 647Q50 646 37 646T11 645V700H285V656L252 655Q218 654 209 643T206 614T226 578Q245 549 275 508T338 421L427 549Q452 582 471 608T506
649Q487 648 465 647T425 645V700H632V656Q603 652 577 633T528 586T481 526L373 375Q408 330 441 287T504 205T553 140Q570 118 586 96T617 53Q632 54 644 54T669 55V0H406V44Q444 43 456 54T463 81T445 115Q421 147 387 190T313 288Q289 254 266 220T218 149Q199
122 182 98T145 51Q164 52 185 53T224 55V0H20Z" />
<glyph unicode="Y" horiz-adv-x="645" d="M211 0V44Q244 46 258 58T276 94T280 155L281 260L103 540Q82 575 70 602T55 647Q39 646 25 646T-3 645V700H267V656Q227 657 209 645T192 611T212 558L291 432Q299 420 309 404T329 372T349 338H351Q360 357 371 378T395
426L469 567Q474 577 482 592T499 622T519 648Q501 647 480 647T441 645V700H650V656Q606 652 577 624T514 534Q481 471 449 411T387 292Q387 276 387 251T386 201T386 158T386 134Q386 107 386 86T383 51Q403 53 425 53T465 55V0H211Z" />
<glyph unicode="Z" horiz-adv-x="608" d="M42 0V56Q104 146 187 268T378 559Q394 584 409 607T444 652L217 651Q160 650 128 613T96 491H52L58 700H558V652L223 143Q201 111 184 89T149 48L372 49Q434 50 475 87T517 208H562L556 0H42Z" />
<glyph unicode="[" horiz-adv-x="368" d="M73 -255L74 755H358V691L167 688L163 -188L360 -191V-255H73Z" />
<glyph unicode="\" horiz-adv-x="693" d="M607 -271L22 712L96 758L671 -230L607 -271Z" />
<glyph unicode="]" horiz-adv-x="368" d="M295 755L294 -255H10V-191L201 -188L205 688L8 691V755H295Z" />
<glyph unicode="^" horiz-adv-x="823" d="M659 437L409 668L158 441H60L368 716H457L763 437H659Z" />
<glyph unicode="_" horiz-adv-x="763" d="M74 -126V-50L689 -54V-126H74Z" />
<glyph unicode="`" horiz-adv-x="343" d="M220 575L105 681Q88 697 84 713T84 742T97 761Q104 767 116 770T143 768T171 741L254 604L220 575Z" />
<glyph unicode="a" horiz-adv-x="519" d="M338 0Q336 16 335 28T332 53Q298 19 259 2T178 -16Q106 -16 70 19T33 108Q33 154 60 188T131 243T227 275T329 286V345Q329 377 323 404T299 449T241 467Q215 468 189 458T149 423Q157 415 159 405T162 385Q162 371 150
354T109 337Q85 337 73 353T60 392Q60 428 86 456T159 500T262 516Q348 516 390 471T433 329Q433 293 433 260T433 194T432 124Q432 109 431 90T428 50Q445 51 463 52T497 53V0H338ZM329 240Q297 238 264 231T203 210T160 174T143 121Q145 87 165 71T214 55Q249
55 276 68T329 106Q328 117 328 128T328 153Q328 162 328 186T329 240Z" />
<glyph unicode="b" horiz-adv-x="579" d="M72 605Q72 622 72 639T75 677Q57 676 39 676T4 674V727Q49 727 76 731T117 742T139 755H176V459Q206 487 243 501T322 516Q384 516 433 485T511 397T540 262Q540 179 506 116T414 19T286 -16Q254 -16 214 -4T140 45L114
0H70L72 605ZM176 155Q176 108 191 83T229 47T279 36Q326 35 358 62T406 135T423 241Q423 301 408 349T362 425T284 453Q253 453 225 439T176 401V155Z" />
<glyph unicode="c" horiz-adv-x="527" d="M284 -16Q217 -16 161 14T72 102T38 240Q38 294 57 343T110 432T192 493T298 516Q357 516 399 498T463 451T486 388Q486 364 472 346T432 328Q403 327 391 345T379 380Q379 389 382 400T393 421Q385 442 367 452T330 465T298
468Q237 467 196 416T154 267Q154 205 172 156T227 78T313 48Q358 48 400 71T468 131L500 103Q471 58 434 32T358 -5T284 -16Z" />
<glyph unicode="d" horiz-adv-x="597" d="M250 -16Q189 -16 142 14T67 102T39 236Q39 318 71 381T161 480T293 516Q324 516 352 509T400 491V605Q400 620 401 638T404 677Q386 676 367 675T333 674V727Q378 727 404 731T445 742T467 755H504V124Q504 109 503 90T500
50Q518 51 536 52T569 53V0H410Q408 14 407 26T404 50Q374 18 335 1T250 -16ZM291 47Q322 47 351 64T400 107Q400 120 400 134T400 164V436Q381 450 356 457T303 465Q254 465 221 437T171 359T156 247Q158 193 173 147T217 74T291 47Z" />
<glyph unicode="e" horiz-adv-x="541" d="M283 -16Q213 -16 158 16T70 108T38 249Q38 319 69 380T158 478T290 516Q332 516 369 503T436 463T483 392T500 286L156 280Q156 212 171 159T222 77T313 48Q340 48 370 57T428 85T475 128L506 101Q476 56 437 31T358
-5T283 -16ZM160 332H391Q391 370 381 400T348 449T292 467Q239 467 205 434T160 332Z" />
<glyph unicode="f" horiz-adv-x="348" d="M106 524Q106 638 150 698T291 758Q321 758 347 749T389 722T405 680Q405 658 393 643T357 627Q331 626 320 642T308 674Q308 679 308 685T312 697Q305 705 295 708T275 711Q249 711 235 696T215 658T209 611V500H337V448L210
445L211 125Q211 107 210 88T207 50Q223 51 240 51T272 53V0H47V42Q77 42 89 56T103 95T106 153V444L27 442V500H106V524Z" />
<glyph unicode="g" horiz-adv-x="554" d="M275 -271Q187 -271 134 -252T57 -202T33 -137Q33 -110 45 -87T79 -47T126 -19Q91 -8 73 12T55 63Q55 95 80 126T154 168Q109 188 82 226T54 316Q53 376 84 421T165 491T269 516Q300 516 333 508T393 481Q404 510 422
534T464 572T516 586Q545 586 560 571T575 531Q575 523 571 512T555 492T525 484Q509 484 497 494T481 520Q460 516 447 496T429 454Q455 431 469 400T484 332Q484 275 454 231T374 162T268 137Q251 137 236 139T203 142Q171 142 151 127T135 91Q140 69 177 62T284
52Q361 49 416 34T502 -14T533 -101Q533 -142 511 -174T451 -227T367 -260T275 -271ZM284 -222Q365 -222 409 -192T454 -124Q454 -92 432 -75T371 -50T278 -41Q252 -39 225 -38T175 -33Q152 -49 140 -72T126 -120Q126 -166 169 -194T284 -222ZM271 184Q305 184
327 201T361 248T373 313Q373 354 361 390T326 448T267 470Q218 470 191 431T164 337Q164 293 176 259T213 204T271 184Z" />
<glyph unicode="h" horiz-adv-x="606" d="M356 42Q386 42 398 56T413 95T416 153L415 293Q415 372 391 411T312 450Q279 449 248 434T195 396V124Q195 106 194 88T191 50Q207 51 223 51T254 53V0H31V42Q61 42 73 56T88 95T91 153V605Q91 622 91 639T94 677Q77
676 58 676T23 674V727Q68 727 95 731T136 742T158 755H195V453Q217 471 244 485T299 507T353 516Q442 516 480 462T520 293V124Q520 106 520 88T516 50Q532 51 549 51T580 53V0H356V42Z" />
<glyph unicode="i" horiz-adv-x="296" d="M43 42Q73 42 85 56T99 95T102 153V360Q102 377 103 394T106 432Q89 431 70 431T35 429V482Q80 482 106 486T147 497T169 510H207V124Q207 106 206 88T203 50Q219 51 235 51T266 53V0H43V42ZM149 602Q123 602 105 621T87
669Q87 697 106 716T149 736Q175 736 192 717T210 669Q210 641 193 622T149 602Z" />
<glyph unicode="j" horiz-adv-x="275" d="M1 -271Q-45 -271 -66 -251T-88 -206Q-88 -186 -75 -170T-38 -152Q-13 -151 -1 -167T11 -200Q11 -203 11 -206T10 -212Q21 -217 33 -217Q59 -217 71 -199T88 -154T93 -99V360Q93 377 94 394T97 432Q79 431 61 431T26 429V482Q71
482 98 486T139 497T161 510H198V-1Q198 -94 172 -154T102 -242T1 -271ZM142 602Q116 602 98 621T80 669Q80 697 99 716T142 736Q168 736 185 717T203 669Q203 641 186 622T142 602Z" />
<glyph unicode="k" horiz-adv-x="556" d="M32 0V42Q62 42 73 56T87 95T90 153L91 605Q91 622 91 639T94 677Q77 676 58 676T24 674V727Q68 727 94 731T136 742T157 755H195V288H238L343 401Q359 417 371 429T395 450L332 448V500H529V459Q494 455 466 439T414
401T375 362L301 284Q320 275 334 262T364 227L434 137Q439 131 450 116T478 83T511 54T545 42V0H446Q417 0 393 27T339 92Q315 124 295 152T259 204T230 240L195 238V124Q195 106 195 88T191 50Q207 51 224 51T255 53V0H32Z" />
<glyph unicode="l" horiz-adv-x="285" d="M31 42Q61 42 73 56T87 95T90 153V605Q90 622 90 639T93 677Q76 676 57 676T23 674V727Q68 727 94 731T135 742T157 755H195V124Q195 106 194 88T191 50Q207 51 223 51T254 53V0H31V42Z" />
<glyph unicode="m" horiz-adv-x="903" d="M43 0V42Q73 42 85 56T99 95T102 153V361Q102 377 102 395T106 432Q89 431 70 431T35 429V482Q80 482 105 486T144 497T165 510H201Q203 500 203 487T205 458Q236 484 275 500T352 516Q401 516 433 499T485 449Q520 478
564 497T650 516Q735 516 776 466T816 297L815 124Q815 106 815 88T811 50Q827 51 844 51T875 53V0H655V42Q683 42 694 56T708 95T711 153V297Q710 376 685 413T609 450Q580 450 552 438T502 406Q507 389 509 369T512 326Q511 276 511 226T511 124Q511 106 510
88T507 50Q523 51 539 51T570 53V0H348V42Q378 42 389 56T403 95T406 153V298Q407 377 384 414T309 451Q280 451 253 439T206 407Q206 395 206 382T207 354V124Q207 106 206 88T203 50Q219 51 235 51T265 53V0H43Z" />
<glyph unicode="n" horiz-adv-x="617" d="M43 0V42Q73 42 85 56T99 95T102 153L103 361Q103 377 103 395T107 432Q89 431 71 431T36 429V482Q81 482 106 486T145 497T166 510H202Q203 501 203 493T204 476T206 453Q228 471 254 485T308 507T363 516Q452 516 491
462T531 293V124Q531 106 530 88T527 50Q543 51 559 51T590 53V0H367V42Q397 42 409 56T423 95T426 153V293Q425 372 401 412T322 451Q290 451 259 435T207 396Q207 386 207 375T207 351V124Q207 106 206 88T203 50Q219 51 235 51T266 53V0H43Z" />
<glyph unicode="o" horiz-adv-x="579" d="M290 -16Q219 -16 162 16T72 105T38 238Q38 319 71 381T162 480T289 516Q360 516 417 484T507 394T541 261Q541 182 508 119T419 20T290 -16ZM297 34Q345 35 372 64T412 138T424 233Q424 276 417 317T393 393T351 447T288
467Q241 467 212 438T169 364T155 267Q155 208 170 155T216 68T297 34Z" />
<glyph unicode="p" d="M34 -255V-213Q64 -213 76 -199T90 -160T93 -102L94 361Q94 377 95 395T98 432Q81 431 62 431T27 429V482Q72 482 97 486T136 497T157 510H193Q194 500 195 486T197 458Q229 486 268 501T346 516Q404 516 452 486T530 399T560 266Q560 183
526 119T435 20T307 -16Q275 -16 248 -9T197 12V-131Q197 -149 197 -167T194 -205Q210 -204 226 -204T257 -202V-255H34ZM300 36Q348 36 379 64T426 141T442 251Q442 302 428 348T384 424T304 453Q273 453 245 438T198 401Q198 388 198 373T199 336T199 279T199
193T198 68Q218 53 244 44T300 36Z" />
<glyph unicode="q" horiz-adv-x="575" d="M341 -255V-213Q371 -213 383 -199T397 -160T400 -102L401 45Q373 14 336 -1T255 -16Q194 -16 145 15T68 104T39 238Q39 321 72 383T163 481T293 516Q340 516 374 505T431 494Q441 494 450 498T468 510H504L505 -131Q505
-149 505 -167T501 -205Q517 -204 534 -204T565 -202V-255H341ZM297 47Q327 47 355 63T400 105V358Q400 397 389 421T355 456T298 467Q251 467 220 440T172 365T156 259Q157 203 172 155T219 77T297 47Z" />
<glyph unicode="r" horiz-adv-x="449" d="M43 42Q73 42 85 56T99 95T102 153V361Q102 377 102 395T106 432Q89 431 70 431T35 429V482H69Q111 482 133 491T165 510H201Q203 496 204 471T206 415Q225 443 250 465T304 502T366 516Q397 516 419 500T442 446Q442
436 437 423T419 401T385 391Q364 392 349 407T334 448Q310 448 286 434T242 395T207 343V124Q207 106 207 88T203 50Q219 51 236 51T267 53V0H43V42Z" />
<glyph unicode="s" horiz-adv-x="470" d="M256 -16Q209 -16 169 -4T105 26L108 -7H55L50 165H92Q94 128 115 98T169 51T242 34Q265 34 287 41T324 64T339 103Q339 128 324 144T282 174T221 200Q191 212 161 225T104 256T63 300T48 366Q48 389 57 415T86 464T140
501T224 516Q251 516 284 507T347 476L346 511H399V335H356Q353 370 338 400T294 449T226 468Q187 468 163 449T138 400Q138 371 156 353T205 322T270 296Q312 279 349 259T409 209T432 133Q432 83 407 50T341 0T256 -16Z" />
<glyph unicode="t" horiz-adv-x="396" d="M234 -16Q209 -16 184 -10T137 16T104 73T92 171L94 444H20V500Q47 501 75 520T124 571T153 640H200V500H354V448L200 446L198 179Q198 141 204 113T226 69T269 53Q292 53 316 67T363 113L397 83Q373 48 349 28T303 -1T263
-13T234 -16Z" />
<glyph unicode="u" horiz-adv-x="604" d="M253 -16Q197 -16 161 5T106 74T88 203V360Q88 377 88 395T92 432Q75 431 56 431T22 429V482H46Q96 482 121 491T156 510H194V205Q194 126 216 87T290 49Q324 49 355 69T407 116V353Q407 375 408 394T412 432Q394 431
375 431T340 429V482H369Q413 482 438 491T474 510H512L511 142Q511 126 510 99T507 50Q524 51 542 52T577 53V0H418Q416 16 415 30T411 57Q380 28 339 6T253 -16Z" />
<glyph unicode="v" horiz-adv-x="516" d="M232 -3L84 330Q69 364 62 386T52 423T47 450L6 447V500H207V459Q180 458 172 444T168 408T183 359L252 199Q260 181 267 162T283 123H284Q290 140 296 158T309 194L377 381Q385 405 393 422T408 451L344 447V500H513V459Q491
457 475 440T446 394T417 329L287 -3H232Z" />
<glyph unicode="w" horiz-adv-x="804" d="M208 -3L81 369Q73 391 68 405T60 430T55 450L7 447V500H228V459Q188 458 183 431T192 361L234 227Q241 203 248 179T262 130Q270 155 278 182T296 240L379 500H443L537 214Q544 192 551 169T566 123Q573 145 580 167T594
210L651 379Q659 402 665 419T681 451L623 447V500H803V459Q779 458 763 450T736 429T717 401T705 370L571 -3H509L423 250Q418 266 412 284T400 323T387 361Q382 340 375 317T360 272T348 234L267 -3H208Z" />
<glyph unicode="x" horiz-adv-x="536" d="M29 0V41Q57 49 75 67T118 117L214 237Q199 256 180 280T144 327T115 364Q95 390 82 412T62 449L22 447V500H233V459Q193 458 191 440T219 380L273 309L347 398Q361 414 371 427T393 451L331 447V500H499V459Q474 451
456 439T420 408T379 361L306 272L436 113Q448 98 459 84T482 50L523 53V0H316V41Q342 42 349 54T337 90L247 198L176 103Q164 87 154 75T130 49L197 53V0H29Z" />
<glyph unicode="y" horiz-adv-x="536" d="M130 -271Q97 -271 74 -254T50 -203Q50 -182 63 -165T99 -148Q123 -147 133 -163T144 -196Q144 -199 144 -202T143 -209Q146 -211 152 -210Q163 -209 176 -198T200 -167Q212 -145 227 -106T260 -16L103 312Q76 368 66
399T52 449L4 447V500H225V459H223Q182 455 179 428T197 354L307 112Q326 163 345 223T386 346Q393 365 400 386T416 426T433 451L368 447V500H532V459Q497 447 478 415T440 334L315 -18Q286 -101 261 -157T206 -242T130 -271Z" />
<glyph unicode="z" horiz-adv-x="512" d="M38 0V51L301 392Q317 412 332 431T356 455L186 452Q153 452 135 434T107 385T93 316H51L64 500H460V458L198 109Q185 92 174 79T145 52L320 48Q359 48 381 66T414 116T432 187H472L459 0H38Z" />
<glyph unicode="{" horiz-adv-x="345" d="M307 -271Q236 -271 194 -247T132 -175T113 -57Q113 -28 115 7T120 76T123 136Q123 187 103 210T27 234H4V292H27Q83 292 103 313T123 386Q123 425 118 467T113 554Q113 625 132 670T193 738T307 760H335V714Q287 716
260 703T221 658T209 568Q209 548 212 521T217 467T221 416Q223 370 206 338T158 288T91 264V262Q127 257 157 238T205 187T221 108Q221 84 218 50T212 -17T209 -71Q209 -128 220 -163T259 -214T335 -229V-271H307Z" />
<glyph unicode="|" horiz-adv-x="240" d="M76 -271L73 760H169L165 -271H76Z" />
<glyph unicode="}" horiz-adv-x="345" d="M38 -271H10V-229Q59 -230 86 -215T124 -164T136 -71Q136 -50 134 -18T128 49T124 108Q123 154 140 186T188 238T255 262V264Q219 270 189 288T141 338T124 416Q125 439 128 466T133 521T136 568Q136 625 125 657T86 703T10
714V760H38Q110 760 152 738T214 671T233 554Q233 510 228 468T223 386Q223 335 243 314T319 292H342V234H319Q264 234 244 211T223 136Q223 110 225 76T230 7T233 -57Q233 -127 214 -175T153 -247T38 -271Z" />
<glyph unicode="~" horiz-adv-x="530" d="M368 221Q331 221 306 232T260 258T218 284T166 296Q125 296 98 282T43 248V329Q75 355 102 368T170 382Q209 382 233 372T277 347T314 321T360 307Q396 304 429 317T487 354V273Q467 251 438 236T368 221Z" />
<glyph unicode="&#xa0;" horiz-adv-x="263" />
<glyph unicode="&#xa1;" horiz-adv-x="241" d="M144 276L183 -137Q185 -165 169 -190T120 -216Q85 -216 71 -191T58 -137L97 276H144ZM121 516Q146 516 165 496T184 447Q184 419 165 399T120 378Q93 378 75 398T57 447Q57 476 76 496T121 516Z" />
<glyph unicode="&#xa2;" horiz-adv-x="542" d="M252 -135V-15Q192 -7 145 25T69 112T41 240Q41 304 67 362T142 462T253 515V623H326L325 515Q402 510 445 473T489 389Q489 365 475 347T436 329Q406 328 394 346T382 380Q382 390 385 401T396 422Q388 443 370
453T333 466T302 469Q240 468 199 416T158 267Q158 205 176 156T230 78T316 48Q362 47 404 71T471 131L504 103Q466 46 416 19T319 -15L318 -135H252Z" />
<glyph unicode="&#xa3;" horiz-adv-x="556" d="M126 365Q120 392 115 422T110 490Q110 560 136 610T205 688T304 716Q364 716 399 696T449 649T464 597Q464 576 452 560T416 543Q398 543 388 551T372 570T367 590Q367 598 369 609T381 630Q376 645 359 656T313
667Q276 667 252 647T217 596T205 529Q205 482 212 442T226 365H380V307L237 306Q243 267 241 237T227 180T185 123Q201 127 216 128T246 130Q287 130 320 116T381 88T430 74Q448 74 461 89T477 135H520Q517 70 491 27T413 -16Q387 -16 362 -5T314 21T265 48T213
64Q203 69 191 73T167 77Q160 39 139 12T92 -16Q70 -16 59 -3T48 27Q48 55 73 80T135 116Q145 132 151 154T158 201Q158 230 154 255T142 306L63 305V365H126Z" />
<glyph unicode="&#xa4;" horiz-adv-x="545" d="M113 36L62 76L120 143Q87 192 87 254Q87 285 96 314T123 370L62 439L113 481L166 414Q187 431 214 440T273 450Q306 450 333 441T381 414L434 480L485 439L423 370Q441 344 450 315T459 254Q459 191 426 143L485
76L434 36L384 99Q362 83 334 74T273 65Q240 65 212 74T163 98L113 36ZM273 117Q300 117 317 132T343 171T357 221T361 270Q361 288 357 310T342 353T315 388T273 402Q248 402 231 388T204 353T190 310T185 270Q185 248 189 222T202 171T229 132T273 117Z" />
<glyph unicode="&#xa5;" horiz-adv-x="711" d="M243 0V44Q271 45 285 53T306 85T312 155L190 154V211L312 210V269L190 268V325H273L135 540Q114 575 102 602T87 647Q71 646 58 646T29 645V700H299V656Q259 657 241 645T224 611T244 558L325 428Q334 415 342 402T360
373T383 339Q391 355 395 364T403 380T410 391T417 405T429 428L501 567Q506 577 514 592T532 622T551 648Q533 647 512 647T473 645V700H682V656Q638 652 609 624T547 534L435 323H538V270L418 269V210L538 209V156L418 155Q418 125 418 107T418 75T415 51Q435
53 457 53T497 55V0H243Z" />
<glyph unicode="&#xa6;" horiz-adv-x="245" d="M81 382L78 760H166L162 382H81ZM81 -271L78 105H166L162 -271H81Z" />
<glyph unicode="&#xa7;" horiz-adv-x="538" d="M263 -228Q206 -228 166 -209T104 -159T83 -98Q83 -76 96 -58T131 -40Q149 -39 160 -47T176 -66T181 -89Q181 -96 178 -106T170 -124Q174 -146 200 -162T260 -178Q301 -178 325 -163T361 -126T372 -81Q372 -50 355
-26T311 18T251 58T187 96Q150 120 116 148T61 214T40 302Q40 343 62 386T125 464Q104 488 95 516T83 578Q82 605 92 636T124 695T184 742T275 760Q329 760 369 741T433 693T456 632Q456 610 444 595T408 577Q390 577 379 585T364 604T359 624Q359 632 361 642T370
660Q361 682 337 696T279 711Q238 711 214 695T178 655T167 611Q167 579 184 554T230 508T291 468T357 428Q395 405 427 377T479 311T499 225Q499 184 476 141T415 62Q432 41 443 15T455 -48Q455 -73 445 -104T413 -163T354 -210T263 -228ZM383 96Q397 116 404
140T411 189Q411 227 394 255T348 306T285 348T218 388T157 430Q143 410 137 386T130 338Q130 300 147 271T193 220T256 178T323 139T383 96Z" />
<glyph unicode="&#xa8;" horiz-adv-x="400" d="M285 607Q262 607 246 626T229 672Q229 699 246 718T285 737Q309 737 324 718T340 672Q340 645 324 626T285 607ZM115 607Q93 607 77 626T60 672Q60 699 77 718T116 737Q140 737 155 718T171 672Q171 645 155 626T115 607Z" />
<glyph unicode="&#xa9;" horiz-adv-x="890" d="M445 -57Q355 -57 282 -27T155 57T74 184T45 345Q45 429 75 502T159 632T286 720T447 752Q535 752 608 720T735 632T817 503T846 345Q846 262 816 189T730 61T602 -25T445 -57ZM448 -5Q524 -5 584 23T689 100T756
212T779 345Q779 415 756 479T688 593T582 671T445 700Q371 700 310 672T205 593T137 479T113 345Q113 275 136 212T202 100T308 23T448 -5ZM451 99Q382 99 328 131T242 219T210 343Q210 387 225 432T271 515T347 574T454 596Q488 596 520 586T578 557L575 591H633V421H584Q577
484 542 510T458 537Q421 537 388 516T334 454T313 355Q313 303 333 261T392 195T480 170Q514 170 553 189T622 244L658 206Q627 164 590 141T517 108T451 99Z" />
<glyph unicode="&#xaa;" horiz-adv-x="401" d="M146 376Q98 376 73 397T48 452Q48 482 65 503T110 538T172 559T238 567V604Q238 622 235 638T222 664T186 676Q171 676 155 668T131 646Q136 641 137 634T139 620Q139 609 131 595T101 582Q83 582 73 594T63 622Q63
646 80 667T128 702T196 716Q252 716 282 687T312 593Q312 566 312 537T311 481Q311 455 317 442T336 429Q340 429 344 431T353 437L367 415Q357 400 337 389T298 377Q273 377 259 390T241 425Q224 402 199 389T146 376ZM162 429Q181 427 200 435T237 461Q237 473
237 491T238 530Q211 530 186 523T144 500T129 462Q131 446 141 438T162 429Z" />
<glyph unicode="&#xab;" horiz-adv-x="518" d="M300 -10L28 269V280L297 550L334 514L142 278V276L336 27L300 -10ZM432 71L243 267V277L430 468L467 436L355 270V268L469 103L432 71Z" />
<glyph unicode="&#xac;" horiz-adv-x="530" d="M419 154L416 278L36 276V350L483 348V154H419Z" />
<glyph unicode="&#xad;" horiz-adv-x="293" d="M62 277V359H421V280L62 277Z" />
<glyph unicode="&#xae;" horiz-adv-x="890" d="M445 -57Q355 -57 282 -27T155 56T74 184T45 345Q45 429 74 503T158 633T285 720T447 752Q536 752 609 721T735 633T817 503T846 345Q846 261 816 189T730 61T602 -25T445 -57ZM448 -4Q524 -4 585 24T689 100T756
212T779 345Q779 416 756 480T688 593T582 671T445 700Q370 700 309 672T205 594T138 480T114 345Q114 275 137 212T203 101T308 24T448 -4ZM254 130V167Q287 169 294 186T302 240V499Q302 515 303 528T305 551L254 547V592Q282 593 314 594T380 595T441 595Q535
594 581 557T628 459Q627 435 616 409T580 360T510 326Q519 321 529 311T551 283Q586 231 605 206T638 173T666 165V127H573Q559 133 543 152T506 202Q487 232 474 253T451 288T434 314Q424 314 409 314T384 314V226Q384 209 384 195T383 172L433 174L435 130H254ZM427
361Q454 361 480 371T523 403T541 459Q541 494 524 514T481 542T429 548Q398 545 391 527T384 474V362Q396 361 406 361T427 361Z" />
<glyph unicode="&#xaf;" horiz-adv-x="361" d="M45 636V708H316V640L45 636Z" />
<glyph unicode="&#xb0;" horiz-adv-x="397" d="M197 401Q150 401 115 422T60 479T41 559Q41 603 62 638T120 695T200 716Q248 716 283 695T337 639T357 559Q357 515 335 479T277 422T197 401ZM199 459Q238 459 262 489T287 559Q287 599 263 629T198 660Q160 660
136 630T111 559Q111 519 135 489T199 459Z" />
<glyph unicode="&#xb1;" horiz-adv-x="530" d="M42 393H488V334H42V393ZM295 583V137H235V583H295ZM42 53H488V-6H42V53Z" />
<glyph unicode="&#xb2;" horiz-adv-x="382" d="M56 305Q56 348 72 380T113 439T167 490Q208 525 219 555T231 606Q231 637 216 655T173 673Q153 673 139 663T120 641Q126 636 128 629T131 615Q131 605 123 592T94 580Q78 580 69 591T60 619Q60 639 74 661T117
700T188 716Q220 716 249 705T296 671T314 609Q314 585 301 561T260 510T185 447Q158 426 143 408T121 370L218 368Q240 368 256 369T282 378T292 407H324L320 305H56Z" />
<glyph unicode="&#xb3;" horiz-adv-x="368" d="M171 301Q112 302 80 331T48 393Q48 410 58 423T85 436Q106 437 114 424T122 398Q122 393 120 385T112 372Q117 356 134 349T169 341Q205 341 223 365T242 420Q242 438 235 457T211 489T160 502Q155 502 147 502T131
501V540Q136 540 140 540T150 540Q184 540 200 552T222 582T227 610Q227 636 214 656T167 676Q146 675 134 666T117 645Q123 641 125 634T128 620Q128 611 120 598T92 585Q76 586 67 597T57 624Q57 643 70 664T112 701T181 716Q234 716 268 690T302 616Q302 590
281 564T221 528Q271 521 296 492T322 423Q323 371 284 336T171 301Z" />
<glyph unicode="&#xb4;" horiz-adv-x="262" d="M335 575L301 604L384 741Q398 761 412 766T439 770T459 761Q467 755 471 742T471 714T450 681L335 575Z" />
<glyph unicode="&#xb5;" horiz-adv-x="613" d="M149 -264Q117 -264 104 -239T91 -171V500H189V219Q189 170 198 132T229 72T288 50Q318 50 346 66T393 109V500H491L490 141Q490 116 494 99T506 72T528 62Q536 62 546 66T568 80L587 56Q573 36 544 15T479 -6Q445
-6 426 10T400 52Q372 22 336 5T261 -13Q226 -13 198 8T148 71L145 68Q157 -6 167 -51T184 -122T195 -166T200 -202Q200 -224 188 -244T149 -264Z" />
<glyph unicode="&#xb6;" horiz-adv-x="525" d="M170 -255L172 406Q139 410 108 425T57 471T36 553Q36 602 57 634T111 683T181 700H430L428 -255H344L346 650L257 647L254 -255H170Z" />
<glyph unicode="&#xb7;" horiz-adv-x="242" d="M122 264Q95 264 77 284T58 333Q58 361 77 381T122 402Q149 402 167 382T185 333Q185 304 167 284T122 264Z" />
<glyph unicode="&#xb8;" horiz-adv-x="303" d="M52 -247L45 -208Q66 -204 87 -198T126 -183T154 -162T165 -135Q165 -116 152 -111T121 -108T91 -122L56 -106L86 9H148L121 -72Q134 -65 153 -61T189 -56Q220 -56 239 -73T258 -123Q258 -155 237 -177T182 -213T114
-235T52 -247Z" />
<glyph unicode="&#xb9;" horiz-adv-x="281" d="M72 301V332Q99 333 108 349T118 398V636L54 599L37 630L160 716H188L189 380Q189 367 189 356T187 337Q198 338 211 338T235 338V301H72Z" />
<glyph unicode="&#xba;" horiz-adv-x="405" d="M202 375Q156 375 120 396T63 454T42 538Q42 589 63 629T120 692T205 716Q252 716 287 695T343 637T364 550Q365 499 345 459T288 397T202 375ZM209 417Q244 418 263 451T283 536Q283 574 275 606T249 657T202 676Q166
674 146 641T126 556Q126 517 135 485T162 435T209 417Z" />
<glyph unicode="&#xbb;" horiz-adv-x="518" d="M218 -10L182 27L376 276V278L184 514L221 550L490 280V269L218 -10ZM86 71L49 103L163 268V270L51 436L87 468L274 277V267L86 71Z" />
<glyph unicode="&#xbc;" horiz-adv-x="764" d="M72 301V332Q99 333 108 349T118 398V636L54 599L37 630L160 716H188L189 380Q189 367 189 356T187 337Q198 338 211 338T235 338V301H72ZM173 -16L126 17L585 716L637 678L173 -16ZM548 -1V31Q576 32 585 46T595
91V102L432 103V142L635 411H664L665 145L722 144V102H665Q665 84 665 67T664 34Q675 35 686 35T706 36V-1H548ZM595 146L597 300L485 148L595 146Z" />
<glyph unicode="&#xbd;" horiz-adv-x="788" d="M72 301V332Q99 333 108 349T118 398V636L54 599L37 630L160 716H188L189 380Q189 367 189 356T187 337Q198 338 211 338T235 338V301H72ZM173 -16L126 17L585 716L637 678L173 -16ZM479 0Q479 43 495 75T536 134T590
185Q631 220 642 250T654 301Q654 332 639 350T596 368Q576 368 562 358T543 336Q549 331 551 324T554 310Q554 300 546 287T517 275Q501 275 492 286T483 314Q483 334 497 356T540 395T611 411Q643 411 672 400T719 366T737 304Q737 280 724 256T683 205T608 142Q581
121 566 103T544 65L641 63Q663 63 679 64T705 73T715 102H747L743 0H479Z" />
<glyph unicode="&#xbe;" horiz-adv-x="803" d="M171 301Q112 302 80 331T48 393Q48 410 58 423T85 436Q106 437 114 424T122 398Q122 393 120 385T112 372Q117 356 134 349T169 341Q205 341 223 365T242 420Q242 438 235 457T211 489T160 502Q155 502 147 502T131
501V540Q136 540 140 540T150 540Q184 540 200 552T222 582T227 610Q227 636 214 656T167 676Q146 675 134 666T117 645Q123 641 125 634T128 620Q128 611 120 598T92 585Q76 586 67 597T57 624Q57 643 70 664T112 701T181 716Q234 716 268 690T302 616Q302 590
281 564T221 528Q271 521 296 492T322 423Q323 371 284 336T171 301ZM212 -16L165 17L624 716L676 678L212 -16ZM587 -1V31Q615 32 624 46T634 91V102L471 103V142L674 411H703L704 145L761 144V102H704Q704 84 704 67T703 34Q714 35 725 35T745 36V-1H587ZM634
146L636 300L524 148L634 146Z" />
<glyph unicode="&#xbf;" horiz-adv-x="476" d="M250 314Q280 314 306 299T332 247Q332 227 321 209T291 172T244 127Q207 94 178 56T147 -42Q147 -76 156 -104T190 -150T257 -167Q282 -167 303 -158T338 -136T356 -109Q349 -100 346 -89T342 -66Q342 -56 347 -44T365
-23T395 -15Q421 -16 433 -32T445 -74Q445 -105 420 -138T349 -193T241 -216Q163 -216 118 -191T53 -127T35 -47Q37 -6 60 28T115 90T179 142T232 187T254 229Q254 241 245 251T213 261Q206 261 197 260T178 255L165 295Q184 305 207 309T250 314ZM242 516Q265
516 283 498T302 451Q302 424 284 405T242 385Q217 385 200 404T182 451Q182 478 200 497T242 516Z" />
<glyph unicode="&#xc0;" horiz-adv-x="640" d="M-3 0V45Q27 45 43 61T70 104T94 166L296 719H336L555 158Q563 139 573 107T582 51Q599 53 615 53T647 55V0H404V44Q439 45 450 59T460 95T449 137L419 218L174 212L145 125Q139 105 132 87T118 52Q136 54 156 54T193
56V0H-3ZM192 266H402L339 435Q327 468 316 500T296 563H295Q287 538 277 508T254 443L192 266ZM347 757L203 841Q184 854 176 867T169 894T176 916Q182 923 193 928T220 931T253 912L374 792L347 757Z" />
<glyph unicode="&#xc1;" horiz-adv-x="640" d="M-3 0V45Q27 45 43 61T70 104T94 166L296 719H336L555 158Q563 139 573 107T582 51Q599 53 615 53T647 55V0H404V44Q439 45 450 59T460 95T449 137L419 218L174 212L145 125Q139 105 132 87T118 52Q136 54 156 54T193
56V0H-3ZM192 266H402L339 435Q327 468 316 500T296 563H295Q287 538 277 508T254 443L192 266ZM279 757L252 792L373 912Q391 928 407 930T434 928T450 916Q456 907 457 894T451 868T423 841L279 757Z" />
<glyph unicode="&#xc2;" horiz-adv-x="640" d="M-3 0V45Q27 45 43 61T70 104T94 166L296 719H336L555 158Q563 139 573 107T582 51Q599 53 615 53T647 55V0H404V44Q439 45 450 59T460 95T449 137L419 218L174 212L145 125Q139 105 132 87T118 52Q136 54 156 54T193
56V0H-3ZM192 266H402L339 435Q327 468 316 500T296 563H295Q287 538 277 508T254 443L192 266ZM449 765L316 850L184 765L158 800L317 944H324L475 800L449 765Z" />
<glyph unicode="&#xc3;" horiz-adv-x="640" d="M-3 0V45Q27 45 43 61T70 104T94 166L296 719H336L555 158Q563 139 573 107T582 51Q599 53 615 53T647 55V0H404V44Q439 45 450 59T460 95T449 137L419 218L174 212L145 125Q139 105 132 87T118 52Q136 54 156 54T193
56V0H-3ZM192 266H402L339 435Q327 468 316 500T296 563H295Q287 538 277 508T254 443L192 266ZM515 900Q499 856 479 831T436 794T391 783Q364 783 343 792T305 815T271 837T236 847Q215 847 197 833T158 790L117 815Q136 863 170 891T238 919Q266 920 286 911T323
889T357 866T393 856Q418 856 439 875T474 921L515 900Z" />
<glyph unicode="&#xc4;" horiz-adv-x="640" d="M-3 0V45Q27 45 43 61T70 104T94 166L296 719H336L555 158Q563 139 573 107T582 51Q599 53 615 53T647 55V0H404V44Q439 45 450 59T460 95T449 137L419 218L174 212L145 125Q139 105 132 87T118 52Q136 54 156 54T193
56V0H-3ZM192 266H402L339 435Q327 468 316 500T296 563H295Q287 538 277 508T254 443L192 266ZM227 783Q203 783 186 802T168 850Q168 879 186 898T228 918Q252 918 269 899T286 850Q286 822 268 803T227 783ZM405 783Q381 783 364 802T347 850Q347 879 364 898T406
918Q431 918 447 899T463 850Q463 822 446 803T405 783Z" />
<glyph unicode="&#xc5;" horiz-adv-x="640" d="M-3 0V45Q27 45 43 61T70 104T94 166L296 719H336L555 158Q563 139 573 107T582 51Q599 53 615 53T647 55V0H404V44Q439 45 450 59T460 95T449 137L419 218L174 212L145 125Q139 105 132 87T118 52Q136 54 156 54T193
56V0H-3ZM192 266H402L339 435Q327 468 316 500T296 563H295Q287 538 277 508T254 443L192 266ZM317 727Q287 727 260 738T215 774T195 837Q194 874 211 901T257 944T315 959Q343 959 370 948T416 912T436 850Q437 812 420 784T374 742T317 727ZM321 768Q340 769
354 786T368 834Q368 878 352 899T312 919Q290 918 277 899T264 848Q264 810 279 789T321 768Z" />
<glyph unicode="&#xc6;" horiz-adv-x="944" d="M-16 0V44Q10 44 30 59T67 96T98 140L447 649L362 645V700H862L868 519H824Q824 576 806 606T758 646T693 655L624 653Q592 653 577 643T556 609T551 545V388H715L709 474H764V253H720Q720 296 708 315T671 338T608
341L551 339V133Q551 106 551 86T548 52L724 50Q762 50 792 64T839 113T856 203H901L895 0H375V46Q401 48 416 55T438 81T445 138V216L217 211L173 146Q156 121 140 97T106 52L183 55V0H-16ZM252 265H445V555L252 265Z" />
<glyph unicode="&#xc7;" horiz-adv-x="695" d="M594 477Q583 567 532 615T399 665Q347 665 303 642T227 578T178 480T160 356Q160 265 192 195T280 85T409 46Q473 46 535 76T639 163L672 135Q627 73 576 40T475 -4T383 -16Q308 -16 245 11T137 86T67 199T42 339Q42
409 64 476T129 597T237 684T390 716Q441 716 489 702T583 659L578 709H640V477H594ZM321 -265L314 -221Q335 -217 356 -210T395 -193T424 -171T435 -143Q435 -122 423 -117T393 -114T362 -127L324 -111L354 9H419L392 -74Q405 -66 425 -62T458 -58Q494 -58 514
-78T535 -130Q535 -161 512 -185T455 -225T384 -251T321 -265Z" />
<glyph unicode="&#xc8;" horiz-adv-x="623" d="M399 253Q399 296 387 315T349 338T287 341L229 339V131Q229 104 229 84T226 50L398 52Q437 53 468 66T517 113T535 203H579L573 0H53V44Q86 46 100 58T119 94T123 155V571Q123 593 124 613T126 649Q109 648 89 647T53
645V700H541L546 519H502Q502 576 484 606T436 646T372 655L302 653Q271 653 255 643T234 609T229 545V388H394L388 474H443V253H399ZM357 757L213 841Q194 854 186 867T179 894T186 916Q192 923 203 928T230 931T263 912L384 792L357 757Z" />
<glyph unicode="&#xc9;" horiz-adv-x="623" d="M399 253Q399 296 387 315T349 338T287 341L229 339V131Q229 104 229 84T226 50L398 52Q437 53 468 66T517 113T535 203H579L573 0H53V44Q86 46 100 58T119 94T123 155V571Q123 593 124 613T126 649Q109 648 89 647T53
645V700H541L546 519H502Q502 576 484 606T436 646T372 655L302 653Q271 653 255 643T234 609T229 545V388H394L388 474H443V253H399ZM289 757L263 792L384 912Q402 928 417 930T444 928T461 916Q467 907 468 894T462 868T433 841L289 757Z" />
<glyph unicode="&#xca;" horiz-adv-x="623" d="M399 253Q399 296 387 315T349 338T287 341L229 339V131Q229 104 229 84T226 50L398 52Q437 53 468 66T517 113T535 203H579L573 0H53V44Q86 46 100 58T119 94T123 155V571Q123 593 124 613T126 649Q109 648 89 647T53
645V700H541L546 519H502Q502 576 484 606T436 646T372 655L302 653Q271 653 255 643T234 609T229 545V388H394L388 474H443V253H399ZM460 765L327 850L195 765L169 800L328 944H335L486 800L460 765Z" />
<glyph unicode="&#xcb;" horiz-adv-x="623" d="M399 253Q399 296 387 315T349 338T287 341L229 339V131Q229 104 229 84T226 50L398 52Q437 53 468 66T517 113T535 203H579L573 0H53V44Q86 46 100 58T119 94T123 155V571Q123 593 124 613T126 649Q109 648 89 647T53
645V700H541L546 519H502Q502 576 484 606T436 646T372 655L302 653Q271 653 255 643T234 609T229 545V388H394L388 474H443V253H399ZM237 783Q213 783 196 802T178 850Q178 879 196 898T238 918Q262 918 279 899T296 850Q296 822 278 803T237 783ZM415 783Q391
783 374 802T357 850Q357 879 374 898T416 918Q441 918 457 899T473 850Q473 822 456 803T415 783Z" />
<glyph unicode="&#xcc;" horiz-adv-x="352" d="M299 656Q267 655 252 643T233 607T229 545V134Q229 107 229 86T226 51Q243 53 263 53T299 55V0H53V44Q86 46 100 58T119 94T123 155V571Q123 593 124 613T126 649Q109 648 89 647T53 645V700H299V656ZM465 757L321
841Q302 854 294 867T287 894T294 916Q300 923 311 928T338 931T371 912L492 792L465 757Z" />
<glyph unicode="&#xcd;" horiz-adv-x="352" d="M299 656Q267 655 252 643T233 607T229 545V134Q229 107 229 86T226 51Q243 53 263 53T299 55V0H53V44Q86 46 100 58T119 94T123 155V571Q123 593 124 613T126 649Q109 648 89 647T53 645V700H299V656ZM141 757L115
792L236 912Q254 928 269 930T296 928T313 916Q319 907 320 894T314 868T285 841L141 757Z" />
<glyph unicode="&#xce;" horiz-adv-x="352" d="M299 656Q267 655 252 643T233 607T229 545V134Q229 107 229 86T226 51Q243 53 263 53T299 55V0H53V44Q86 46 100 58T119 94T123 155V571Q123 593 124 613T126 649Q109 648 89 647T53 645V700H299V656ZM568 765L435
850L303 765L277 800L436 944H443L594 800L568 765Z" />
<glyph unicode="&#xcf;" horiz-adv-x="352" d="M299 656Q267 655 252 643T233 607T229 545V134Q229 107 229 86T226 51Q243 53 263 53T299 55V0H53V44Q86 46 100 58T119 94T123 155V571Q123 593 124 613T126 649Q109 648 89 647T53 645V700H299V656ZM345 783Q321
783 304 802T286 850Q286 879 304 898T346 918Q370 918 387 899T404 850Q404 822 386 803T345 783ZM523 783Q499 783 482 802T465 850Q465 879 482 898T524 918Q549 918 565 899T581 850Q581 822 564 803T523 783Z" />
<glyph unicode="&#xd0;" horiz-adv-x="749" d="M23 327V382H402V329L23 327ZM53 44Q86 46 100 58T119 94T123 155V571Q123 593 124 613T126 649Q109 648 89 647T53 645V700L308 701Q401 701 475 677T601 608T680 497T707 352Q707 285 684 222T614 110T494 30T324
0H53V44ZM229 133Q229 106 229 85T226 51Q247 51 268 51T305 50T329 50Q391 50 439 73T520 137T571 232T589 347Q589 445 557 513T461 617T300 654Q267 654 252 643T233 607T229 546V133Z" />
<glyph unicode="&#xd1;" horiz-adv-x="766" d="M595 -14L223 480Q212 493 202 507T181 536H180L183 147Q183 122 183 97T180 51Q197 53 217 53T253 55V0H55V44Q83 44 97 55T117 84T123 126V574Q123 594 123 614T124 649Q108 648 89 647T54 645V700H186L538 237Q555
215 568 196T595 160H596L597 571Q597 593 598 613T600 649Q582 648 562 647T527 645V700H725V656Q693 655 679 643T661 607T657 545L656 -14H595ZM591 900Q575 856 555 831T512 794T467 783Q440 783 419 792T381 815T347 837T312 847Q291 847 273 833T234 790L193
815Q212 863 246 891T314 919Q342 920 362 911T399 889T433 866T469 856Q494 856 515 875T550 921L591 900Z" />
<glyph unicode="&#xd2;" horiz-adv-x="786" d="M396 -16Q301 -16 234 16T124 101T62 220T42 350Q42 413 63 477T128 596T237 683T391 716Q483 716 549 683T659 596T723 477T745 350Q745 288 724 224T659 105T550 17T396 -16ZM401 36Q459 36 501 62T571 131T612
227T625 332Q625 396 610 455T565 562T489 637T385 665Q327 665 284 638T214 568T174 472T160 366Q160 314 174 256T217 148T291 67T401 36ZM419 757L275 841Q256 854 248 867T241 894T248 916Q254 923 265 928T292 931T325 912L446 792L419 757Z" />
<glyph unicode="&#xd3;" horiz-adv-x="786" d="M396 -16Q301 -16 234 16T124 101T62 220T42 350Q42 413 63 477T128 596T237 683T391 716Q483 716 549 683T659 596T723 477T745 350Q745 288 724 224T659 105T550 17T396 -16ZM401 36Q459 36 501 62T571 131T612
227T625 332Q625 396 610 455T565 562T489 637T385 665Q327 665 284 638T214 568T174 472T160 366Q160 314 174 256T217 148T291 67T401 36ZM351 757L324 792L445 912Q463 928 478 930T505 928T522 916Q528 907 529 894T523 868T495 841L351 757Z" />
<glyph unicode="&#xd4;" horiz-adv-x="786" d="M396 -16Q301 -16 234 16T124 101T62 220T42 350Q42 413 63 477T128 596T237 683T391 716Q483 716 549 683T659 596T723 477T745 350Q745 288 724 224T659 105T550 17T396 -16ZM401 36Q459 36 501 62T571 131T612
227T625 332Q625 396 610 455T565 562T489 637T385 665Q327 665 284 638T214 568T174 472T160 366Q160 314 174 256T217 148T291 67T401 36ZM521 765L388 850L256 765L230 800L389 944H396L547 800L521 765Z" />
<glyph unicode="&#xd5;" horiz-adv-x="786" d="M396 -16Q301 -16 234 16T124 101T62 220T42 350Q42 413 63 477T128 596T237 683T391 716Q483 716 549 683T659 596T723 477T745 350Q745 288 724 224T659 105T550 17T396 -16ZM401 36Q459 36 501 62T571 131T612
227T625 332Q625 396 610 455T565 562T489 637T385 665Q327 665 284 638T214 568T174 472T160 366Q160 314 174 256T217 148T291 67T401 36ZM586 900Q570 856 550 831T507 794T462 783Q435 783 414 792T376 815T342 837T307 847Q286 847 268 833T229 790L188 815Q207
863 241 891T309 919Q337 920 357 911T394 889T428 866T464 856Q489 856 510 875T545 921L586 900Z" />
<glyph unicode="&#xd6;" horiz-adv-x="786" d="M396 -16Q301 -16 234 16T124 101T62 220T42 350Q42 413 63 477T128 596T237 683T391 716Q483 716 549 683T659 596T723 477T745 350Q745 288 724 224T659 105T550 17T396 -16ZM401 36Q459 36 501 62T571 131T612
227T625 332Q625 396 610 455T565 562T489 637T385 665Q327 665 284 638T214 568T174 472T160 366Q160 314 174 256T217 148T291 67T401 36ZM299 783Q275 783 258 802T240 850Q240 879 258 898T300 918Q324 918 341 899T358 850Q358 822 340 803T299 783ZM477 783Q453
783 436 802T419 850Q419 879 436 898T478 918Q503 918 519 899T535 850Q535 822 518 803T477 783Z" />
<glyph unicode="&#xd7;" horiz-adv-x="530" d="M131 541L446 226L404 184L89 499L131 541ZM443 498L127 182L87 222L403 538L443 498Z" />
<glyph unicode="&#xd8;" horiz-adv-x="786" d="M606 765L668 726L190 -86L133 -50L606 765ZM395 -16Q300 -16 233 16T123 101T62 220T42 350Q42 413 63 477T127 596T236 683T391 716Q482 716 549 683T659 596T723 477T744 350Q744 288 723 224T659 105T550 17T395
-16ZM400 36Q459 36 501 62T570 131T611 227T625 332Q625 396 610 455T564 562T488 637T384 665Q326 665 284 638T214 568T173 472T159 366Q159 314 173 256T216 148T290 67T400 36Z" />
<glyph unicode="&#xd9;" horiz-adv-x="755" d="M274 656Q245 656 230 645T210 616T205 574V315Q205 256 214 208T245 124T304 68T396 47Q463 47 506 77T570 163T593 296L595 571Q595 593 596 613T598 649Q581 648 561 647T525 645V700H727V656Q694 655 680 643T661
607T656 545L655 307Q655 235 639 176T589 73T504 7T382 -16Q301 -16 246 6T159 71T112 178T98 325V541Q98 568 99 600T102 649Q85 648 65 648T29 646V700H274V656ZM418 757L274 841Q255 854 247 867T240 894T247 916Q253 923 264 928T291 931T324 912L445 792L418
757Z" />
<glyph unicode="&#xda;" horiz-adv-x="755" d="M274 656Q245 656 230 645T210 616T205 574V315Q205 256 214 208T245 124T304 68T396 47Q463 47 506 77T570 163T593 296L595 571Q595 593 596 613T598 649Q581 648 561 647T525 645V700H727V656Q694 655 680 643T661
607T656 545L655 307Q655 235 639 176T589 73T504 7T382 -16Q301 -16 246 6T159 71T112 178T98 325V541Q98 568 99 600T102 649Q85 648 65 648T29 646V700H274V656ZM350 757L324 792L445 912Q463 928 478 930T505 928T522 916Q528 907 529 894T523 868T494 841L350
757Z" />
<glyph unicode="&#xdb;" horiz-adv-x="755" d="M274 656Q245 656 230 645T210 616T205 574V315Q205 256 214 208T245 124T304 68T396 47Q463 47 506 77T570 163T593 296L595 571Q595 593 596 613T598 649Q581 648 561 647T525 645V700H727V656Q694 655 680 643T661
607T656 545L655 307Q655 235 639 176T589 73T504 7T382 -16Q301 -16 246 6T159 71T112 178T98 325V541Q98 568 99 600T102 649Q85 648 65 648T29 646V700H274V656ZM521 765L388 850L256 765L230 800L389 944H396L547 800L521 765Z" />
<glyph unicode="&#xdc;" horiz-adv-x="755" d="M274 656Q245 656 230 645T210 616T205 574V315Q205 256 214 208T245 124T304 68T396 47Q463 47 506 77T570 163T593 296L595 571Q595 593 596 613T598 649Q581 648 561 647T525 645V700H727V656Q694 655 680 643T661
607T656 545L655 307Q655 235 639 176T589 73T504 7T382 -16Q301 -16 246 6T159 71T112 178T98 325V541Q98 568 99 600T102 649Q85 648 65 648T29 646V700H274V656ZM298 783Q274 783 257 802T239 850Q239 879 257 898T299 918Q323 918 340 899T357 850Q357 822
339 803T298 783ZM476 783Q452 783 435 802T418 850Q418 879 435 898T477 918Q502 918 518 899T534 850Q534 822 517 803T476 783Z" />
<glyph unicode="&#xdd;" horiz-adv-x="645" d="M211 0V44Q244 46 258 58T276 94T280 155L281 260L103 540Q82 575 70 602T55 647Q39 646 25 646T-3 645V700H267V656Q227 657 209 645T192 611T212 558L291 432Q299 420 309 404T329 372T349 338H351Q360 357 371
378T395 426L469 567Q474 577 482 592T499 622T519 648Q501 647 480 647T441 645V700H650V656Q606 652 577 624T514 534Q481 471 449 411T387 292Q387 276 387 251T386 201T386 158T386 134Q386 107 386 86T383 51Q403 53 425 53T465 55V0H211ZM299 757L272 792L393
912Q411 928 427 930T454 928T470 916Q476 907 477 894T471 868T443 841L299 757Z" />
<glyph unicode="&#xde;" horiz-adv-x="608" d="M53 0V44Q86 46 100 58T119 94T123 155V571Q123 593 124 613T126 649Q109 648 89 647T53 645V700H299V656Q258 655 245 636T230 575L286 576Q380 577 446 557T548 494T586 381Q587 342 572 303T521 231T423 179T268
158Q257 158 248 158T229 158Q229 114 229 89T226 51Q243 53 263 53T299 55V0H53ZM285 208Q380 209 424 254T469 374Q469 417 456 446T418 493T361 519T289 527Q271 527 257 527T229 526V210Q244 208 257 208T285 208Z" />
<glyph unicode="&#xdf;" horiz-adv-x="711" d="M515 -16Q486 -16 454 -7T396 18L399 -8H345L340 164H382Q386 108 419 71T512 34Q542 34 567 52T592 105Q592 140 562 161T484 203Q447 220 411 239T353 289T330 367Q330 429 371 470T493 515Q494 582 480 620T443
677T396 700T352 705Q300 704 269 675T224 594T210 468L211 125Q211 107 210 88T207 50Q223 51 240 51T272 53V0H47V42Q77 42 89 56T103 95T106 153L105 444L27 442V500H106Q109 583 139 640T225 728T357 758Q393 758 427 750T492 723T546 677T583 610T596 521Q596
508 595 495T592 467Q569 469 540 469T483 464T439 444T421 400Q421 375 436 357T476 325T533 297Q573 280 608 259T666 208T688 134Q688 83 665 50T604 1T515 -16Z" />
<glyph unicode="&#xe0;" horiz-adv-x="519" d="M338 0Q336 16 335 28T332 53Q298 19 259 2T178 -16Q106 -16 70 19T33 108Q33 154 60 188T131 243T227 275T329 286V345Q329 377 323 404T299 449T241 467Q215 468 189 458T149 423Q157 415 159 405T162 385Q162
371 150 354T109 337Q85 337 73 353T60 392Q60 428 86 456T159 500T262 516Q348 516 390 471T433 329Q433 293 433 260T433 194T432 124Q432 109 431 90T428 50Q445 51 463 52T497 53V0H338ZM329 240Q297 238 264 231T203 210T160 174T143 121Q145 87 165 71T214
55Q249 55 276 68T329 106Q328 117 328 128T328 153Q328 162 328 186T329 240ZM303 597L188 703Q171 719 167 735T167 764T180 783Q187 789 199 792T226 790T254 763L337 626L303 597Z" />
<glyph unicode="&#xe1;" horiz-adv-x="519" d="M338 0Q336 16 335 28T332 53Q298 19 259 2T178 -16Q106 -16 70 19T33 108Q33 154 60 188T131 243T227 275T329 286V345Q329 377 323 404T299 449T241 467Q215 468 189 458T149 423Q157 415 159 405T162 385Q162
371 150 354T109 337Q85 337 73 353T60 392Q60 428 86 456T159 500T262 516Q348 516 390 471T433 329Q433 293 433 260T433 194T432 124Q432 109 431 90T428 50Q445 51 463 52T497 53V0H338ZM329 240Q297 238 264 231T203 210T160 174T143 121Q145 87 165 71T214
55Q249 55 276 68T329 106Q328 117 328 128T328 153Q328 162 328 186T329 240ZM199 597L165 626L248 763Q262 783 276 788T303 792T323 783Q331 777 335 764T335 736T314 703L199 597Z" />
<glyph unicode="&#xe2;" horiz-adv-x="519" d="M338 0Q336 16 335 28T332 53Q298 19 259 2T178 -16Q106 -16 70 19T33 108Q33 154 60 188T131 243T227 275T329 286V345Q329 377 323 404T299 449T241 467Q215 468 189 458T149 423Q157 415 159 405T162 385Q162
371 150 354T109 337Q85 337 73 353T60 392Q60 428 86 456T159 500T262 516Q348 516 390 471T433 329Q433 293 433 260T433 194T432 124Q432 109 431 90T428 50Q445 51 463 52T497 53V0H338ZM329 240Q297 238 264 231T203 210T160 174T143 121Q145 87 165 71T214
55Q249 55 276 68T329 106Q328 117 328 128T328 153Q328 162 328 186T329 240ZM379 598L252 706H250L121 605L91 640L254 802H258L411 636L379 598Z" />
<glyph unicode="&#xe3;" horiz-adv-x="519" d="M338 0Q336 16 335 28T332 53Q298 19 259 2T178 -16Q106 -16 70 19T33 108Q33 154 60 188T131 243T227 275T329 286V345Q329 377 323 404T299 449T241 467Q215 468 189 458T149 423Q157 415 159 405T162 385Q162
371 150 354T109 337Q85 337 73 353T60 392Q60 428 86 456T159 500T262 516Q348 516 390 471T433 329Q433 293 433 260T433 194T432 124Q432 109 431 90T428 50Q445 51 463 52T497 53V0H338ZM329 240Q297 238 264 231T203 210T160 174T143 121Q145 87 165 71T214
55Q249 55 276 68T329 106Q328 117 328 128T328 153Q328 162 328 186T329 240ZM423 735Q405 681 374 657T315 632Q286 632 265 644T225 669T188 681Q172 681 153 672T118 640L80 662Q94 701 125 727T187 754Q218 754 238 742T275 718T315 706Q336 706 354 719T385
754L423 735Z" />
<glyph unicode="&#xe4;" horiz-adv-x="519" d="M338 0Q336 16 335 28T332 53Q298 19 259 2T178 -16Q106 -16 70 19T33 108Q33 154 60 188T131 243T227 275T329 286V345Q329 377 323 404T299 449T241 467Q215 468 189 458T149 423Q157 415 159 405T162 385Q162
371 150 354T109 337Q85 337 73 353T60 392Q60 428 86 456T159 500T262 516Q348 516 390 471T433 329Q433 293 433 260T433 194T432 124Q432 109 431 90T428 50Q445 51 463 52T497 53V0H338ZM329 240Q297 238 264 231T203 210T160 174T143 121Q145 87 165 71T214
55Q249 55 276 68T329 106Q328 117 328 128T328 153Q328 162 328 186T329 240ZM336 629Q313 629 297 648T280 694Q280 721 297 740T336 759Q360 759 375 740T391 694Q391 667 375 648T336 629ZM166 629Q144 629 128 648T111 694Q111 721 128 740T167 759Q191 759
206 740T222 694Q222 667 206 648T166 629Z" />
<glyph unicode="&#xe5;" horiz-adv-x="519" d="M338 0Q336 16 335 28T332 53Q298 19 259 2T178 -16Q106 -16 70 19T33 108Q33 154 60 188T131 243T227 275T329 286V345Q329 377 323 404T299 449T241 467Q215 468 189 458T149 423Q157 415 159 405T162 385Q162
371 150 354T109 337Q85 337 73 353T60 392Q60 428 86 456T159 500T262 516Q348 516 390 471T433 329Q433 293 433 260T433 194T432 124Q432 109 431 90T428 50Q445 51 463 52T497 53V0H338ZM329 240Q297 238 264 231T203 210T160 174T143 121Q145 87 165 71T214
55Q249 55 276 68T329 106Q328 117 328 128T328 153Q328 162 328 186T329 240ZM253 590Q228 590 204 600T164 633T147 687Q146 719 161 743T200 780T251 794Q276 794 300 784T339 753T356 698Q357 665 342 641T303 603T253 590ZM256 631Q273 632 284 646T295 686Q295
719 283 736T251 754Q234 753 222 738T210 698Q210 668 222 649T256 631Z" />
<glyph unicode="&#xe6;" horiz-adv-x="775" d="M176 -16Q109 -16 71 18T32 106Q32 152 59 186T129 241T225 273T327 284V342Q327 375 321 403T296 450T238 468Q209 467 185 455T148 419Q155 413 158 402T161 384Q161 370 149 352T110 335Q87 336 74 351T61 390Q61
422 85 451T152 498T253 516Q303 516 338 495T390 431Q418 471 457 493T552 516Q600 516 640 494T705 421T730 286L432 280Q428 208 444 156T492 76T571 48Q613 48 647 69T709 128L741 101Q711 56 678 31T611 -5T543 -16Q486 -16 442 7T371 75Q329 23 279 4T176
-16ZM210 55Q247 53 278 68T334 111Q333 127 331 149T328 195T326 237Q294 236 262 229T202 207T159 172T143 119Q145 85 166 71T210 55ZM439 332H626Q626 370 619 400T593 448T543 466Q508 466 487 448T454 399T439 332Z" />
<glyph unicode="&#xe7;" horiz-adv-x="527" d="M284 -16Q217 -16 161 14T72 102T38 240Q38 294 57 343T110 432T192 493T298 516Q357 516 399 498T463 451T486 388Q486 364 472 346T432 328Q403 327 391 345T379 380Q379 389 382 400T393 421Q385 442 367 452T330
465T298 468Q237 467 196 416T154 267Q154 205 172 156T227 78T313 48Q358 48 400 71T468 131L500 103Q471 58 434 32T358 -5T284 -16ZM247 -247L240 -208Q261 -204 282 -198T321 -183T349 -162T360 -135Q360 -116 347 -111T316 -108T286 -122L251 -106L281 9H343L316
-72Q329 -65 348 -61T384 -56Q415 -56 434 -73T453 -123Q453 -155 432 -177T377 -213T309 -235T247 -247Z" />
<glyph unicode="&#xe8;" horiz-adv-x="541" d="M283 -16Q213 -16 158 16T70 108T38 249Q38 319 69 380T158 478T290 516Q332 516 369 503T436 463T483 392T500 286L156 280Q156 212 171 159T222 77T313 48Q340 48 370 57T428 85T475 128L506 101Q476 56 437 31T358
-5T283 -16ZM160 332H391Q391 370 381 400T348 449T292 467Q239 467 205 434T160 332ZM333 575L218 681Q201 697 197 713T197 742T210 761Q217 767 229 770T256 768T284 741L367 604L333 575Z" />
<glyph unicode="&#xe9;" horiz-adv-x="541" d="M283 -16Q213 -16 158 16T70 108T38 249Q38 319 69 380T158 478T290 516Q332 516 369 503T436 463T483 392T500 286L156 280Q156 212 171 159T222 77T313 48Q340 48 370 57T428 85T475 128L506 101Q476 56 437 31T358
-5T283 -16ZM160 332H391Q391 370 381 400T348 449T292 467Q239 467 205 434T160 332ZM229 575L195 604L278 741Q292 761 306 766T333 770T353 761Q361 755 365 742T365 714T344 681L229 575Z" />
<glyph unicode="&#xea;" horiz-adv-x="541" d="M283 -16Q213 -16 158 16T70 108T38 249Q38 319 69 380T158 478T290 516Q332 516 369 503T436 463T483 392T500 286L156 280Q156 212 171 159T222 77T313 48Q340 48 370 57T428 85T475 128L506 101Q476 56 437 31T358
-5T283 -16ZM160 332H391Q391 370 381 400T348 449T292 467Q239 467 205 434T160 332ZM409 576L282 684H280L151 583L121 618L284 780H288L441 614L409 576Z" />
<glyph unicode="&#xeb;" horiz-adv-x="541" d="M283 -16Q213 -16 158 16T70 108T38 249Q38 319 69 380T158 478T290 516Q332 516 369 503T436 463T483 392T500 286L156 280Q156 212 171 159T222 77T313 48Q340 48 370 57T428 85T475 128L506 101Q476 56 437 31T358
-5T283 -16ZM160 332H391Q391 370 381 400T348 449T292 467Q239 467 205 434T160 332ZM366 607Q343 607 327 626T310 672Q310 699 327 718T366 737Q390 737 405 718T421 672Q421 645 405 626T366 607ZM196 607Q174 607 158 626T141 672Q141 699 158 718T197 737Q221
737 236 718T252 672Q252 645 236 626T196 607Z" />
<glyph unicode="&#xec;" horiz-adv-x="296" d="M43 42Q73 42 85 56T99 95T102 153V360Q102 377 103 394T106 432Q89 431 70 431T35 429V482Q80 482 106 486T147 497T169 510H207V124Q207 106 206 88T203 50Q219 51 235 51T266 53V0H43V42ZM457 575L342 681Q325
697 321 713T321 742T334 761Q341 767 353 770T380 768T408 741L491 604L457 575Z" />
<glyph unicode="&#xed;" horiz-adv-x="296" d="M43 42Q73 42 85 56T99 95T102 153V360Q102 377 103 394T106 432Q89 431 70 431T35 429V482Q80 482 106 486T147 497T169 510H207V124Q207 106 206 88T203 50Q219 51 235 51T266 53V0H43V42ZM353 575L319 604L402
741Q416 761 430 766T457 770T477 761Q485 755 489 742T489 714T468 681L353 575Z" />
<glyph unicode="&#xee;" horiz-adv-x="296" d="M43 42Q73 42 85 56T99 95T102 153V360Q102 377 103 394T106 432Q89 431 70 431T35 429V482Q80 482 106 486T147 497T169 510H207V124Q207 106 206 88T203 50Q219 51 235 51T266 53V0H43V42ZM402 780H407L539 614L506
579L401 676H400L296 583L262 618L402 780Z" />
<glyph unicode="&#xef;" horiz-adv-x="296" d="M43 42Q73 42 85 56T99 95T102 153V360Q102 377 103 394T106 432Q89 431 70 431T35 429V482Q80 482 106 486T147 497T169 510H207V124Q207 106 206 88T203 50Q219 51 235 51T266 53V0H43V42ZM489 607Q466 607 450
626T433 672Q433 699 450 718T489 737Q513 737 528 718T544 672Q544 645 528 626T489 607ZM319 607Q297 607 281 626T264 672Q264 699 281 718T320 737Q344 737 359 718T375 672Q375 645 359 626T319 607Z" />
<glyph unicode="&#xf0;" horiz-adv-x="553" d="M260 -16Q198 -16 149 12T70 94T40 223Q39 275 53 323T95 410T164 472T258 496Q289 497 325 486T385 442H387Q378 478 358 517T308 591T241 651L181 576L137 614L192 679Q171 690 146 697T94 708L101 760Q140 757
172 748T233 727L286 792L324 757L281 703Q349 662 398 596T473 447T500 271Q501 193 475 128T396 23T260 -16ZM273 39Q307 39 335 60T380 125T398 232Q398 265 392 301T373 369T336 421T278 442Q238 444 210 417T167 344T152 244Q152 145 187 92T273 39Z" />
<glyph unicode="&#xf1;" horiz-adv-x="617" d="M43 0V42Q73 42 85 56T99 95T102 153L103 361Q103 377 103 395T107 432Q89 431 71 431T36 429V482Q81 482 106 486T145 497T166 510H202Q203 501 203 493T204 476T206 453Q228 471 254 485T308 507T363 516Q452 516
491 462T531 293V124Q531 106 530 88T527 50Q543 51 559 51T590 53V0H367V42Q397 42 409 56T423 95T426 153V293Q425 372 401 412T322 451Q290 451 259 435T207 396Q207 386 207 375T207 351V124Q207 106 206 88T203 50Q219 51 235 51T266 53V0H43ZM499 713Q481
659 450 635T391 610Q362 610 341 622T301 647T264 659Q248 659 229 650T194 618L156 640Q170 679 201 705T263 732Q294 732 314 720T351 696T391 684Q412 684 430 697T461 732L499 713Z" />
<glyph unicode="&#xf2;" horiz-adv-x="579" d="M290 -16Q219 -16 162 16T72 105T38 238Q38 319 71 381T162 480T289 516Q360 516 417 484T507 394T541 261Q541 182 508 119T419 20T290 -16ZM297 34Q345 35 372 64T412 138T424 233Q424 276 417 317T393 393T351
447T288 467Q241 467 212 438T169 364T155 267Q155 208 170 155T216 68T297 34ZM341 575L226 681Q209 697 205 713T205 742T218 761Q225 767 237 770T264 768T292 741L375 604L341 575Z" />
<glyph unicode="&#xf3;" horiz-adv-x="579" d="M290 -16Q219 -16 162 16T72 105T38 238Q38 319 71 381T162 480T289 516Q360 516 417 484T507 394T541 261Q541 182 508 119T419 20T290 -16ZM297 34Q345 35 372 64T412 138T424 233Q424 276 417 317T393 393T351
447T288 467Q241 467 212 438T169 364T155 267Q155 208 170 155T216 68T297 34ZM237 575L203 604L286 741Q300 761 314 766T341 770T361 761Q369 755 373 742T373 714T352 681L237 575Z" />
<glyph unicode="&#xf4;" horiz-adv-x="579" d="M290 -16Q219 -16 162 16T72 105T38 238Q38 319 71 381T162 480T289 516Q360 516 417 484T507 394T541 261Q541 182 508 119T419 20T290 -16ZM297 34Q345 35 372 64T412 138T424 233Q424 276 417 317T393 393T351
447T288 467Q241 467 212 438T169 364T155 267Q155 208 170 155T216 68T297 34ZM417 576L290 684H288L159 583L129 618L292 780H296L449 614L417 576Z" />
<glyph unicode="&#xf5;" horiz-adv-x="579" d="M290 -16Q219 -16 162 16T72 105T38 238Q38 319 71 381T162 480T289 516Q360 516 417 484T507 394T541 261Q541 182 508 119T419 20T290 -16ZM297 34Q345 35 372 64T412 138T424 233Q424 276 417 317T393 393T351
447T288 467Q241 467 212 438T169 364T155 267Q155 208 170 155T216 68T297 34ZM461 713Q443 659 412 635T353 610Q324 610 303 622T263 647T226 659Q210 659 191 650T156 618L118 640Q132 679 163 705T225 732Q256 732 276 720T313 696T353 684Q374 684 392 697T423
732L461 713Z" />
<glyph unicode="&#xf6;" horiz-adv-x="579" d="M290 -16Q219 -16 162 16T72 105T38 238Q38 319 71 381T162 480T289 516Q360 516 417 484T507 394T541 261Q541 182 508 119T419 20T290 -16ZM297 34Q345 35 372 64T412 138T424 233Q424 276 417 317T393 393T351
447T288 467Q241 467 212 438T169 364T155 267Q155 208 170 155T216 68T297 34ZM373 607Q350 607 334 626T317 672Q317 699 334 718T373 737Q397 737 412 718T428 672Q428 645 412 626T373 607ZM203 607Q181 607 165 626T148 672Q148 699 165 718T204 737Q228 737
243 718T259 672Q259 645 243 626T203 607Z" />
<glyph unicode="&#xf7;" horiz-adv-x="530" d="M265 128Q238 128 220 148T201 197Q201 225 220 245T265 266Q292 266 310 246T328 197Q328 168 310 148T265 128ZM265 457Q238 457 220 477T201 526Q201 554 220 574T265 595Q292 595 310 575T328 526Q328 497 310
477T265 457ZM42 393H488V334H42V393Z" />
<glyph unicode="&#xf8;" horiz-adv-x="579" d="M117 -78L72 -44L459 568L513 533L117 -78ZM290 -16Q219 -16 162 16T72 105T38 238Q38 319 71 381T162 480T289 516Q360 516 417 484T507 394T541 261Q541 182 508 119T419 20T290 -16ZM297 34Q345 35 372 64T412
138T424 233Q424 276 417 317T393 393T351 447T288 467Q241 467 212 438T169 364T155 267Q155 208 170 155T216 68T297 34Z" />
<glyph unicode="&#xf9;" horiz-adv-x="604" d="M253 -16Q197 -16 161 5T106 74T88 203V360Q88 377 88 395T92 432Q75 431 56 431T22 429V482H46Q96 482 121 491T156 510H194V205Q194 126 216 87T290 49Q324 49 355 69T407 116V353Q407 375 408 394T412 432Q394
431 375 431T340 429V482H369Q413 482 438 491T474 510H512L511 142Q511 126 510 99T507 50Q524 51 542 52T577 53V0H418Q416 16 415 30T411 57Q380 28 339 6T253 -16ZM355 575L240 681Q223 697 219 713T219 742T232 761Q239 767 251 770T278 768T306 741L389 604L355
575Z" />
<glyph unicode="&#xfa;" horiz-adv-x="604" d="M253 -16Q197 -16 161 5T106 74T88 203V360Q88 377 88 395T92 432Q75 431 56 431T22 429V482H46Q96 482 121 491T156 510H194V205Q194 126 216 87T290 49Q324 49 355 69T407 116V353Q407 375 408 394T412 432Q394
431 375 431T340 429V482H369Q413 482 438 491T474 510H512L511 142Q511 126 510 99T507 50Q524 51 542 52T577 53V0H418Q416 16 415 30T411 57Q380 28 339 6T253 -16ZM251 575L217 604L300 741Q314 761 328 766T355 770T375 761Q383 755 387 742T387 714T366 681L251
575Z" />
<glyph unicode="&#xfb;" horiz-adv-x="604" d="M253 -16Q197 -16 161 5T106 74T88 203V360Q88 377 88 395T92 432Q75 431 56 431T22 429V482H46Q96 482 121 491T156 510H194V205Q194 126 216 87T290 49Q324 49 355 69T407 116V353Q407 375 408 394T412 432Q394
431 375 431T340 429V482H369Q413 482 438 491T474 510H512L511 142Q511 126 510 99T507 50Q524 51 542 52T577 53V0H418Q416 16 415 30T411 57Q380 28 339 6T253 -16ZM431 576L304 684H302L173 583L143 618L306 780H310L463 614L431 576Z" />
<glyph unicode="&#xfc;" horiz-adv-x="604" d="M253 -16Q197 -16 161 5T106 74T88 203V360Q88 377 88 395T92 432Q75 431 56 431T22 429V482H46Q96 482 121 491T156 510H194V205Q194 126 216 87T290 49Q324 49 355 69T407 116V353Q407 375 408 394T412 432Q394
431 375 431T340 429V482H369Q413 482 438 491T474 510H512L511 142Q511 126 510 99T507 50Q524 51 542 52T577 53V0H418Q416 16 415 30T411 57Q380 28 339 6T253 -16ZM387 607Q364 607 348 626T331 672Q331 699 348 718T387 737Q411 737 426 718T442 672Q442 645
426 626T387 607ZM217 607Q195 607 179 626T162 672Q162 699 179 718T218 737Q242 737 257 718T273 672Q273 645 257 626T217 607Z" />
<glyph unicode="&#xfd;" horiz-adv-x="536" d="M130 -271Q97 -271 74 -254T50 -203Q50 -182 63 -165T99 -148Q123 -147 133 -163T144 -196Q144 -199 144 -202T143 -209Q146 -211 152 -210Q163 -209 176 -198T200 -167Q212 -145 227 -106T260 -16L103 312Q76 368
66 399T52 449L4 447V500H225V459H223Q182 455 179 428T197 354L307 112Q326 163 345 223T386 346Q393 365 400 386T416 426T433 451L368 447V500H532V459Q497 447 478 415T440 334L315 -18Q286 -101 261 -157T206 -242T130 -271ZM238 575L204 604L287 741Q301
761 315 766T342 770T362 761Q370 755 374 742T374 714T353 681L238 575Z" />
<glyph unicode="&#xfe;" horiz-adv-x="576" d="M11 -255V-213Q41 -213 53 -199T67 -160T70 -102L72 605Q72 622 72 640T75 677Q58 676 39 676T5 674V727Q50 727 76 731T117 742T138 755H175V462Q206 487 243 501T320 516Q381 516 430 486T507 398T536 264Q536
180 503 117T412 19T284 -16Q251 -16 225 -9T175 11V-131Q175 -149 174 -167T171 -205Q187 -204 203 -204T234 -202V-255H11ZM277 36Q324 36 355 64T403 140T419 249Q419 300 405 347T360 424T280 453Q249 453 222 440T175 405V67Q195 52 221 44T277 36Z" />
<glyph unicode="&#xff;" horiz-adv-x="536" d="M130 -271Q97 -271 74 -254T50 -203Q50 -182 63 -165T99 -148Q123 -147 133 -163T144 -196Q144 -199 144 -202T143 -209Q146 -211 152 -210Q163 -209 176 -198T200 -167Q212 -145 227 -106T260 -16L103 312Q76 368
66 399T52 449L4 447V500H225V459H223Q182 455 179 428T197 354L307 112Q326 163 345 223T386 346Q393 365 400 386T416 426T433 451L368 447V500H532V459Q497 447 478 415T440 334L315 -18Q286 -101 261 -157T206 -242T130 -271ZM374 607Q351 607 335 626T318
672Q318 699 335 718T374 737Q398 737 413 718T429 672Q429 645 413 626T374 607ZM204 607Q182 607 166 626T149 672Q149 699 166 718T205 737Q229 737 244 718T260 672Q260 645 244 626T204 607Z" />
<glyph unicode="&#x2013;" horiz-adv-x="581" d="M61 277V359H518V280L61 277Z" />
<glyph unicode="&#x2014;" horiz-adv-x="842" d="M61 277V359H778V280L61 277Z" />
<glyph unicode="&#x2018;" horiz-adv-x="224" d="M122 760L153 737Q142 724 130 698T109 640T103 579Q110 581 115 582T127 584Q149 584 164 570T180 529Q180 500 163 483T120 465Q82 465 62 493T42 561Q42 589 51 624T79 696T122 760Z" />
<glyph unicode="&#x2019;" horiz-adv-x="186" d="M82 465L51 488Q62 502 74 528T95 585T101 647Q94 644 89 643T77 642Q56 642 40 656T24 696Q24 725 41 742T84 760Q123 760 142 733T162 664Q162 637 153 601T125 530T82 465Z" />
<glyph unicode="&#x201a;" horiz-adv-x="252" d="M117 -182L86 -159Q97 -145 109 -119T130 -62T136 0Q129 -3 124 -4T112 -5Q91 -5 75 9T59 49Q59 78 76 95T119 113Q158 113 177 86T197 17Q197 -10 188 -46T160 -117T117 -182Z" />
<glyph unicode="&#x201c;" horiz-adv-x="408" d="M122 760L153 737Q142 724 130 698T109 640T103 579Q110 581 115 582T127 584Q149 584 164 570T180 529Q180 500 163 483T120 465Q82 465 62 493T42 561Q42 589 51 624T79 696T122 760ZM306 760L337 737Q326 724
314 698T293 640T287 579Q294 581 299 582T311 584Q333 584 348 570T364 529Q364 500 347 483T304 465Q266 465 246 493T226 561Q226 589 235 624T263 696T306 760Z" />
<glyph unicode="&#x201d;" horiz-adv-x="370" d="M82 465L51 488Q62 502 74 528T95 585T101 647Q94 644 89 643T77 642Q56 642 40 656T24 696Q24 725 41 742T84 760Q123 760 142 733T162 664Q162 637 153 601T125 530T82 465ZM266 465L235 488Q246 502 258 528T279
585T285 647Q278 644 273 643T261 642Q240 642 224 656T208 696Q208 725 225 742T268 760Q307 760 326 733T346 664Q346 637 337 601T309 530T266 465Z" />
<glyph unicode="&#x201e;" horiz-adv-x="436" d="M117 -182L86 -159Q97 -145 109 -119T130 -62T136 0Q129 -3 124 -4T112 -5Q91 -5 75 9T59 49Q59 78 76 95T119 113Q158 113 177 86T197 17Q197 -10 188 -46T160 -117T117 -182ZM301 -182L270 -159Q281 -145 293
-119T314 -62T320 0Q313 -3 308 -4T296 -5Q275 -5 259 9T243 49Q243 78 260 95T303 113Q342 113 361 86T381 17Q381 -10 372 -46T344 -117T301 -182Z" />
<glyph unicode="&#x2022;" horiz-adv-x="395" d="M197 219Q155 219 120 239T65 293T44 370Q44 413 64 447T120 501T197 521Q239 521 274 501T330 447T351 370Q351 328 330 294T274 239T197 219Z" />
<glyph unicode="&#x2039;" horiz-adv-x="381" d="M300 -10L27 270V280L297 550L338 511L147 278V277L339 30L300 -10Z" />
<glyph unicode="&#x203a;" horiz-adv-x="381" d="M81 -10L42 30L234 277V278L43 511L83 550L354 280V270L81 -10Z" />
</font>
</defs>
</svg>
